<svg id="Слой_1" xmlns="http://www.w3.org/2000/svg" width="474.591" height="296.746" viewBox="0 0 474.5913086 296.7460938"><style>.st0{fill:#fff}</style><path class="st0" d="M465.64 160.021c29.933-36.134-22.57-59.316-49.56-68.882-42.473-15.055-93.418-19.323-135.18-35.856-14.073-5.571-19.606-13.853-1.065-27.396C295.945 16.123 322.077 4.53 332.782 0h-12.38l6.503.028c-4.341.835-5.813 1.243-7.35 1.734l-5.845-.002c2.047-.532 3.797-1.117 6.692-1.76h-9.294c-87.7 16.947-112.296 39.638-114.406 57.773-1.82 15.625 25.373 35.916 77.442 56.602 98.934 39.31-275.557 56.809-274.14 127.7.377 18.907 24.635 39.883 72.73 54.671h151.252c-7.662-3.798-14.582-7.871-20.71-12.076-22.166-15.246-34.657-31.92-30.32-48.339l16.48.001c-3.742 12.494 4.836 25.753 25.687 38.91 12.993 8.184 29.883 15.273 48.306 21.504h202.699c-138.19-66.204-33.423-96.983-.488-136.725zM308.362 3.09l7.268-.002c-4.464.988-6.302 1.273-7.838 1.764l-6.121-.002c2.047-.532 3.797-1.117 6.691-1.76zm-10.97 3.224l6.45.262-10.799 3.442h-7.793l12.142-3.704zm-19.465 6.264l7.927-.002a289.757 289.757 0 0 0-11.424 4.517h-8.001a254.635 254.635 0 0 1 11.498-4.515zm-17.671 7.241h7.91c-5.401 2.439-10.352 4.925-14.772 7.398h-7.26c4.36-2.61 9.093-5.077 14.122-7.398zM241.53 30.122h6.932c-3.903 2.413-7.264 4.799-9.987 7.122l-6.303.083c2.795-2.712 6.132-5.052 9.358-7.205zm-12.158 10.296h6.144c-3.087 4.367-2.42 8.889.972 13.444h-8.521c-1.865-4.135-2.254-8.536 1.405-13.444zm.515 16.744h9.495c4.079 4.013 10.054 8.028 17.174 11.936l-12.399-.002c-6.38-3.908-11.376-7.906-14.27-11.934zm20.411 15.451l13.028-.003c8.769 4.331 18.716 8.498 28.788 12.349l-14.475-.002c-9.923-3.92-19.36-8.057-27.341-12.344zm37.156 16.094l14.756-.002c12.656 4.567 24.916 8.56 34.666 11.704l-15.47-.003c-10.557-3.466-22.36-7.405-33.952-11.699zm-89.477 134.742H180.01c18.07-21.323 52.873-32.196 77.966-41.432l28.25-.002c-27.319 10.58-66.533 20.696-88.25 41.434zm112.573-50.89l-26.01-.001c31.671-11.037 61.658-21.121 77.32-31.058l12.658-.001c-12.266 9.845-36.048 20.058-63.968 31.06zm70.64-38.012h-10.858c12.953-15.527-22.417-25.412-33.38-29.031h15.598c9.249 3.18 39.071 13.2 28.64 29.03z"/></svg>