<?xml version="1.0" encoding="utf-8"?>
<!-- Generator: Adobe Illustrator 17.0.0, SVG Export Plug-In . SVG Version: 6.00 Build 0)  -->
<!DOCTYPE svg PUBLIC "-//W3C//DTD SVG 1.1//EN" "http://www.w3.org/Graphics/SVG/1.1/DTD/svg11.dtd">
<svg version="1.1" id="Слой_1" xmlns="http://www.w3.org/2000/svg" xmlns:xlink="http://www.w3.org/1999/xlink" x="0px" y="0px"
	 width="474.591px" height="296.746px" viewBox="0 0 474.591 296.746" enable-background="new 0 0 474.591 296.746"
	 xml:space="preserve">
<path opacity="0.4" fill="#FFFFFF" d="M465.64,160.021c29.934-36.135-22.569-59.316-49.561-68.883
	c-42.473-15.055-93.417-19.322-135.179-35.856c-14.073-5.571-19.607-13.853-1.065-27.396C295.944,16.123,322.077,4.53,332.782,0
	h-12.38l6.503,0.028c-4.342,0.835-5.814,1.242-7.35,1.733L313.71,1.76c2.047-0.532,3.797-1.117,6.692-1.76h-9.294
	c-87.7,16.947-112.297,39.638-114.406,57.773c-1.819,15.624,25.373,35.915,77.441,56.602c98.935,39.31-275.557,56.809-274.14,127.7
	c0.377,18.907,24.635,39.883,72.73,54.671h151.252c-7.662-3.798-14.582-7.871-20.711-12.076
	c-22.166-15.246-34.656-31.92-30.32-48.339l16.48,0.001c-3.742,12.494,4.836,25.753,25.688,38.909
	c12.993,8.185,29.883,15.273,48.306,21.505h202.699C327.939,230.542,432.705,199.763,465.64,160.021z M308.362,3.09l7.268-0.002
	c-4.464,0.988-6.302,1.273-7.838,1.764l-6.121-0.002C303.718,4.318,305.468,3.733,308.362,3.09z M297.392,6.314l6.45,0.263
	l-10.799,3.441h-7.793C289.298,8.783,293.345,7.549,297.392,6.314z M277.927,12.578l7.927-0.002
	c-3.962,1.471-7.783,2.986-11.424,4.517h-8.001C270.145,15.529,273.99,14.014,277.927,12.578z M260.256,19.819l7.91-0.001
	c-5.401,2.439-10.353,4.926-14.772,7.398h-7.26C250.494,24.607,255.227,22.14,260.256,19.819z M241.53,30.122h6.932
	c-3.903,2.413-7.264,4.799-9.987,7.122l-6.303,0.083C234.967,34.615,238.304,32.275,241.53,30.122z M229.372,40.418h6.143
	c-3.087,4.367-2.42,8.889,0.973,13.444h-8.521C226.102,49.727,225.713,45.326,229.372,40.418z M229.887,57.162h9.495
	c4.079,4.013,10.054,8.027,17.174,11.936l-12.399-0.002C237.777,65.188,232.781,61.19,229.887,57.162z M250.298,72.613l13.028-0.003
	c8.769,4.331,18.716,8.498,28.788,12.349l-14.476-0.002C267.716,81.037,258.279,76.9,250.298,72.613z M287.454,88.707l14.756-0.002
	c12.656,4.566,24.916,8.561,34.666,11.704l-15.47-0.003C310.849,96.94,299.046,93.001,287.454,88.707z M197.977,223.449h-17.966
	c18.069-21.323,52.873-32.196,77.966-41.433l28.25-0.002C258.908,192.596,219.694,202.711,197.977,223.449z M310.55,172.56
	l-26.011-0.002c31.672-11.037,61.659-21.121,77.32-31.058l12.658-0.001C362.252,151.344,338.47,161.557,310.55,172.56z
	 M381.19,134.547h-10.858c12.953-15.527-22.417-25.412-33.38-29.031h15.598C361.799,108.695,391.621,118.717,381.19,134.547z"/>
</svg>
