<?xml version="1.0" encoding="utf-8"?><svg xmlns="http://www.w3.org/2000/svg" xmlns:xlink="http://www.w3.org/1999/xlink"><symbol id="audio" viewBox="0 0 59.9013901 51.2726669"><path d="M58.064 29.076c-.987-.972-2.138-1.555-3.433-1.74-.821-.116-1.556-.692-1.608-1.52-.407-6.518-2.368-14.214-6.198-18.585C42.62 2.433 36.975 0 30.045 0c-6.924 0-12.6 2.43-16.867 7.225-3.89 4.368-5.883 12.067-6.296 18.59-.05.812-.74 1.415-1.55 1.487-1.523.136-2.776.748-3.734 1.824C.538 30.32 0 31.753 0 33.391v5.922c0 1.664.579 3.083 1.718 4.218 1.136 1.137 2.555 1.714 4.218 1.714h2.497a3 3 0 0 0 3-3V28.317c0-6.145 1.703-14.421 4.958-18.35C19.677 6 24.081 4.072 29.855 4.072c5.772 0 10.208 1.96 13.561 5.99 3.317 3.99 5.053 12.204 5.053 18.254v13.928a3 3 0 0 0 3 3h2.31c1.659 0 3.11-.61 4.308-1.808 1.204-1.198 1.814-2.585 1.814-4.124V33.39c0-1.658-.617-3.11-1.837-4.315z"/><path d="M35.077 25.508c-.257-.509-.335-1.087-.517-1.627-.183-.54-.93-.652-1.159-.128-.1.23-.12.475-.12.475l-4.138 18.633c-.161.724-1.015.944-1.712.69-1.17-.424-2.641-.52-4.167-.185-3.178.692-5.374 2.98-4.91 5.109.463 2.128 3.414 3.291 6.592 2.597 2.203-.48 3.932-1.73 4.632-3.162.018-.038.067-.127.077-.085.006.02.046.02.05 0l.14-.648c0-.004.005-.008.004-.013-.004-.005.003-.012.005-.018l3.202-14.79c.185-.857 1.023-1.483 1.822-1.122 1.953.884 2.95 3.164 2.95 3.164 2.52 4.977-1.24 8.974-1.24 8.974a8.731 8.731 0 0 0-.804 1.244c-.386.758.577 1.487 1.181.889.41-.404.73-.873.73-.873 2.01-3.172 4.788-6.552 1.532-11.773a96.227 96.227 0 0 1-4.15-7.351z"/></symbol><symbol id="calendar" viewBox="0 0 11.2500229 11.9999151"><g id="abXMLID_146_"><path id="abXMLID_147_" d="M9.75 5.25H7.5V7.5h2.25V5.25zM9 6.75h-.75V6H9v.75zm.75 1.5H7.5v2.25h2.25V8.25zM9 9.75h-.75V9H9v.75zm-2.25-4.5H4.5V7.5h2.25V5.25zM6 6.75h-.75V6H6v.75zm2.25-6V0H7.5v.75H3.75V0H3v.75H0V12h11.25V.75h-3zm2.25 10.5H.75v-7.5h9.75v7.5zm0-8.25H.75V1.5H3v.75h.75V1.5H7.5v.75h.75V1.5h2.25V3zM6.75 8.25H4.5v2.25h2.25V8.25zM6 9.75h-.75V9H6v.75zm-2.25-1.5H1.5v2.25h2.25V8.25zM3 9.75h-.75V9H3v.75zm.75-4.5H1.5V7.5h2.25V5.25zM3 6.75h-.75V6H3v.75z"/></g></symbol><symbol id="clock" viewBox="0 0 139.3905945 139.3906097"><path d="M69.695 0C31.266 0 0 31.266 0 69.695c0 38.43 31.266 69.696 69.695 69.696 38.43 0 69.696-31.266 69.696-69.696C139.39 31.266 108.125 0 69.695 0zm0 127.445c-31.84 0-57.746-25.906-57.746-57.75 0-31.84 25.906-57.746 57.746-57.746 31.844 0 57.75 25.906 57.75 57.746 0 31.844-25.91 57.75-57.75 57.75zm0 0"/><path d="M69.992 76.31h29.635c3.531 0 6.29-2.767 6.29-6.297 0-3.532-2.759-6.298-6.29-6.298H76.29V27.176c0-3.531-2.767-6.297-6.298-6.297s-6.297 2.766-6.297 6.297v42.837c0 3.53 2.766 6.297 6.297 6.297zm0 0"/></symbol><symbol id="close" viewBox="0 0 139.3905945 139.3906097"><path d="M69.695 0C31.266 0 0 31.266 0 69.695c0 38.43 31.266 69.696 69.695 69.696 38.43 0 69.696-31.266 69.696-69.696C139.39 31.266 108.125 0 69.695 0zm0 127.445c-31.84 0-57.746-25.906-57.746-57.75 0-31.84 25.906-57.746 57.746-57.746 31.844 0 57.75 25.906 57.75 57.746 0 31.844-25.91 57.75-57.75 57.75zm0 0"/><path d="M96.664 42.73a5.972 5.972 0 0 0-8.445 0L69.695 61.254 51.175 42.73a5.976 5.976 0 0 0-8.448 8.45L61.25 69.7 42.727 88.222a5.976 5.976 0 0 0 4.226 10.199c1.527 0 3.06-.582 4.223-1.75l18.519-18.524 18.524 18.524a5.954 5.954 0 0 0 4.222 1.75 5.951 5.951 0 0 0 4.223-1.75 5.97 5.97 0 0 0 0-8.45l-18.52-18.519 18.52-18.523a5.978 5.978 0 0 0 0-8.45zm0 0"/></symbol><symbol id="correct-mark" viewBox="0 0 139.3905945 139.3906097"><path d="M69.695 0C31.266 0 0 31.266 0 69.695c0 38.43 31.266 69.696 69.695 69.696 38.43 0 69.696-31.266 69.696-69.696C139.39 31.266 108.125 0 69.695 0zm0 127.445c-31.84 0-57.746-25.906-57.746-57.75 0-31.84 25.906-57.746 57.746-57.746 31.844 0 57.75 25.906 57.75 57.746 0 31.844-25.91 57.75-57.75 57.75zm0 0"/><path d="M95.548 43.15l10.462 10.502L64.084 95.57 37.88 69.36l10.462-10.498 15.742 15.747z"/></symbol><symbol id="doc-list" viewBox="0 0 285.8007813 375.3970032"><path d="M283.31 72.888L212.911 2.493A8.542 8.542 0 0 0 206.898 0H21.301C9.556 0 0 9.556 0 21.3v332.802c0 11.742 9.556 21.295 21.3 21.295h243.2c11.745 0 21.3-9.553 21.3-21.295V78.898a8.556 8.556 0 0 0-2.49-6.01zM17 21.301A4.306 4.306 0 0 1 21.3 17h177.098v49.102c0 11.743 9.556 21.296 21.301 21.296h49.102v266.704a4.303 4.303 0 0 1-4.301 4.295H21.3a4.303 4.303 0 0 1-4.3-4.295V21.301zm202.7 49.097a4.304 4.304 0 0 1-4.302-4.296V29.02l41.382 41.379H219.7z"/><path d="M53.3 209h12.802C74.317 209 81 202.317 81 194.102v-12.801c0-8.218-6.683-14.903-14.898-14.903H53.301c-8.218 0-14.903 6.685-14.903 14.903v12.801c0 8.215 6.685 14.898 14.903 14.898zm2.098-17v-8.602H64V192h-8.602zm42.704 5.398H155.7c4.687 0 8.5-3.814 8.5-8.5 0-4.687-3.813-8.5-8.5-8.5H98.102c-4.687 0-8.5 3.813-8.5 8.5 0 4.686 3.813 8.5 8.5 8.5zm-44.802-46h12.802c8.215 0 14.898-6.683 14.898-14.898v-12.801c0-8.215-6.683-14.898-14.898-14.898H53.301c-8.218 0-14.903 6.683-14.903 14.898V136.5c0 8.215 6.685 14.898 14.903 14.898zm2.098-17v-8.597H64v8.597h-8.602zm42.704 3h140.796c4.687 0 8.5-3.813 8.5-8.5 0-4.687-3.813-8.5-8.5-8.5H98.102c-4.687 0-8.5 3.813-8.5 8.5 0 4.687 3.813 8.5 8.5 8.5zM53.3 93.8h12.802C74.317 93.8 81 87.116 81 78.899V66.102C81 57.884 74.317 51.2 66.102 51.2H53.301c-8.218 0-14.903 6.685-14.903 14.903v12.796c0 8.217 6.685 14.903 14.903 14.903zm2.098-17v-8.6H64v8.6h-8.602zm42.704 4.399H155.7c4.687 0 8.5-3.813 8.5-8.5 0-4.687-3.813-8.5-8.5-8.5H98.102c-4.687 0-8.5 3.813-8.5 8.5 0 4.687 3.813 8.5 8.5 8.5zM53.3 324.2h12.802c8.215 0 14.898-6.684 14.898-14.9v-12.8c0-8.215-6.683-14.899-14.898-14.899H53.301c-8.218 0-14.903 6.684-14.903 14.898V309.3c0 8.215 6.685 14.899 14.903 14.899zm2.098-17v-8.598H64v8.598h-8.602zm42.704 2h83.199c4.686 0 8.5-3.814 8.5-8.5 0-4.687-3.814-8.5-8.5-8.5H98.102c-4.687 0-8.5 3.813-8.5 8.5 0 4.686 3.813 8.5 8.5 8.5zM53.3 266.602h12.802c8.215 0 14.898-6.685 14.898-14.902v-12.803C81 230.683 74.317 224 66.102 224H53.301c-8.218 0-14.903 6.683-14.903 14.897V251.7c0 8.217 6.685 14.902 14.903 14.902zm2.098-17V241H64v8.602h-8.602zM98.102 256h83.199c4.686 0 8.5-3.813 8.5-8.5 0-4.686-3.814-8.5-8.5-8.5H98.102c-4.687 0-8.5 3.814-8.5 8.5 0 4.687 3.813 8.5 8.5 8.5z"/></symbol><symbol id="double-arr-up" viewBox="0 0 23.2516003 20.9913998"><path d="M0 10.496l11.625-5.531 11.627 5.53V5.532L11.625 0 0 5.531v4.965z"/><path id="agXMLID_15_" d="M0 20.991l11.625-5.53 11.627 5.53v-4.964l-11.627-5.531L0 16.027v4.964z"/></symbol><symbol id="edit" viewBox="0 0 328.00354 328.007782"><path d="M319.246 31.387L296.62 8.757a29.802 29.802 0 0 0-7.078-5.25C285.253 1.216 280.425 0 275.406 0c-5.098 0-9.992 1.258-14.332 3.617A30.632 30.632 0 0 0 258 5.543a30.201 30.201 0 0 0-3.805 3.215l-212.84 212.84c-.011.011-.023.027-.036.039-.046.047-.092.101-.14.152a5.9 5.9 0 0 0-1.129 1.766l-23.093 56.082a.581.581 0 0 0-.032.078L.453 319.723a5.995 5.995 0 0 0 1.754 6.933A6.01 6.01 0 0 0 6 328.008c.77 0 1.547-.149 2.285-.453l40.024-16.48.039-.016 56.105-23.102a5.949 5.949 0 0 0 1.761-1.129c.056-.047.105-.094.157-.14.011-.012.027-.024.039-.036L258 135.06l11.879-11.88 49.367-49.366c5.648-5.649 8.758-13.18 8.758-21.211 0-8.036-3.11-15.567-8.758-21.215zm-50.73-18.04a18.127 18.127 0 0 1 6.89-1.347c2.41 0 4.742.465 6.894 1.348.059.027.118.058.172.082.473.199.938.414 1.39.652.185.098.36.215.54.32.324.188.652.368.96.575.267.175.52.379.774.57-.254-.191-.507-.391-.773-.566-.309-.207-.637-.391-.961-.58-.18-.1-.355-.217-.54-.315a16.507 16.507 0 0 0-1.39-.652c-.058-.028-.113-.059-.172-.082A18.052 18.052 0 0 0 275.406 12c-2.406 0-4.738.465-6.89 1.352-.075.03-.15.07-.223.1.074-.034.148-.073.222-.104zm-5.837 3.895c.43-.429.88-.832 1.34-1.211.203-.164.414-.304.621-.461.27-.199.535-.41.813-.593-.278.187-.543.394-.813.597-.207.153-.418.293-.62.457-.462.379-.911.782-1.34 1.215l-24.042 24.041-.002-.002 24.043-24.043zm-57.866 97.47v.002l.015-.02-.015.019zM182.2 137.32c.01-.01.022-.017.033-.027L73.402 246.117 182.199 137.32zm55.152-38.183l.002.002-21.535 21.535 21.533-21.537zM56.154 223.77a38.069 38.069 0 0 1 7.619 5.89c4.116 4.118 7.139 9 8.935 14.206-1.796-5.207-4.82-10.088-8.935-14.203a37.793 37.793 0 0 0-7.621-5.89l.002-.003zm-8.67 74.667l-17.915-17.915 19.365-47.027a25.727 25.727 0 0 1 6.355 4.649c5.668 5.671 8.297 13.37 7.027 20.597a6.001 6.001 0 0 0 6.946 6.95c7.23-1.27 14.926 1.355 20.597 7.023a25.936 25.936 0 0 1 4.653 6.355l-47.028 19.368zm56.75-26.583a37.707 37.707 0 0 0 0-.003l152.918-152.914-152.918 152.917zM265.64 110.45l-48.086-48.082 12.598-12.593 48.082 48.082-12.594 12.593zm50.364-57.85c0-.6-.028-1.2-.086-1.794a17.827 17.827 0 0 0-5.157-10.934l-22.625-22.625a17.913 17.913 0 0 0-1.343-1.215c.464.379.91.782 1.343 1.21l22.625 22.63a17.795 17.795 0 0 1 5.157 10.934c.058.594.086 1.191.086 1.793v.002z"/></symbol><symbol id="h-flag" viewBox="0 0 27.490366 38.6089783"><path d="M12.446 38.609a.999.999 0 0 1-.926-.624L.074 9.86a.999.999 0 1 1 1.852-.754l11.445 28.125a.999.999 0 0 1-.925 1.378zM10.106 22.8a.998.998 0 0 1-.926-.623L3.43 8.044a.999.999 0 0 1 .549-1.303L20.363.074a.999.999 0 0 1 1.325 1.247l-2.966 8.737 8.222 4.184a.998.998 0 0 1-.077 1.817l-16.384 6.667a1 1 0 0 1-.377.074zM5.658 8.216l4.997 12.28 13.431-5.464-7.043-3.584a1 1 0 0 1-.494-1.213l2.541-7.483L5.658 8.216z"/></symbol><symbol id="h-folder" viewBox="0 0 37.5107002 29.5550995"><path d="M1 29.555a1 1 0 0 1-1-1V1a1 1 0 0 1 1-1h12.102c.297 0 .58.132.77.36L16.6 3.646h18.165a1 1 0 0 1 1 1v7.748a1 1 0 1 1-2 0V5.645H16.13c-.297 0-.58-.132-.77-.361L12.633 2H2v26.555a1 1 0 0 1-1 1z"/><path d="M21.62 29.555H1a1 1 0 1 1 0-2h20.62a1 1 0 1 1 0 2zm8.023-.282c-4.338 0-7.868-3.53-7.868-7.868 0-4.338 3.53-7.867 7.868-7.867 4.338 0 7.868 3.529 7.868 7.867 0 4.339-3.53 7.868-7.868 7.868zm0-14.735a6.876 6.876 0 0 0-6.868 6.867 6.876 6.876 0 0 0 6.868 6.868 6.875 6.875 0 0 0 6.868-6.868 6.876 6.876 0 0 0-6.868-6.867z"/><path d="M32.468 21.906h-5.649a.5.5 0 1 1 0-1h5.649a.5.5 0 1 1 0 1z"/><path d="M29.688 24.73a.5.5 0 0 1-.5-.5v-5.65a.5.5 0 1 1 1 0v5.649a.5.5 0 0 1-.5.5z"/></symbol><symbol id="h-glasses" viewBox="0 0 39.8090668 18.6375256"><path d="M13.19 18.638H5.25A5.255 5.255 0 0 1 0 13.39a5.256 5.256 0 0 1 5.25-5.25h7.94a5.256 5.256 0 0 1 5.25 5.25 5.255 5.255 0 0 1-5.25 5.248zM5.25 10.14A3.254 3.254 0 0 0 2 13.39a3.253 3.253 0 0 0 3.25 3.248h7.94a3.253 3.253 0 0 0 3.25-3.248 3.254 3.254 0 0 0-3.25-3.25H5.25zm29.309 8.498h-7.94a5.255 5.255 0 0 1-5.25-5.248 5.256 5.256 0 0 1 5.25-5.25h7.94a5.256 5.256 0 0 1 5.25 5.25 5.255 5.255 0 0 1-5.25 5.248zm-7.94-8.498a3.254 3.254 0 0 0-3.25 3.25 3.253 3.253 0 0 0 3.25 3.248h7.94a3.253 3.253 0 0 0 3.25-3.248 3.254 3.254 0 0 0-3.25-3.25h-7.94z"/><path d="M22.37 14.39h-4.93a1 1 0 1 1 0-2h4.93a1 1 0 1 1 0 2zm-21.369 0a1 1 0 0 1-.972-1.24L3.09.762A1.001 1.001 0 0 1 4.573.144l3.506 2.11A.998.998 0 1 1 7.05 3.967l-2.345-1.41-2.733 11.072a1 1 0 0 1-.97.76zm37.807 0a1 1 0 0 1-.97-.76L35.103 2.557l-2.343 1.41a1 1 0 0 1-1.031-1.713l3.504-2.11a.997.997 0 0 1 1.486.617l3.06 12.388a1 1 0 0 1-.971 1.24z"/></symbol><symbol id="h-tablet" viewBox="0 0 25.6991997 36.347599"><path d="M24.7 36.348H1a1 1 0 0 1-1-1V2.406a1 1 0 0 1 1-1h7.125v2H2v30.942h21.7V3.406h-6.126v-2H24.7a1 1 0 0 1 1 1v32.942a1 1 0 0 1-1 1z"/><path d="M17.574 4.81H8.125a.5.5 0 0 1-.5-.5V.5a.5.5 0 0 1 .5-.5h9.45a.5.5 0 0 1 .5.5v3.81a.5.5 0 0 1-.5.5zm-8.949-1h8.45V1h-8.45v2.81zm11.428 5.801H5.957a.5.5 0 1 1 0-1h14.096a.5.5 0 1 1 0 1zm0 5.395H5.955a.5.5 0 1 1 0-1h14.098a.5.5 0 1 1 0 1zm0 5.396H5.957a.5.5 0 1 1 0-1h14.096a.5.5 0 1 1 0 1zm0 5.397H5.957a.5.5 0 1 1 0-1h14.096a.5.5 0 1 1 0 1z"/></symbol><symbol id="h-traffic-light" viewBox="0 0 25.1675892 31.6797009"><path d="M20.328 31.68H4.84a1 1 0 0 1-1-1V1a1 1 0 0 1 1-1h15.488a1 1 0 0 1 1 1v29.68a1 1 0 0 1-1 1zm-14.488-2h13.488V2H5.84v27.68z"/><path d="M4.84 12.317a1 1 0 0 1-.891-.546L.109 4.237A1 1 0 0 1 1 2.783h3.84a1 1 0 1 1 0 2H2.633l3.098 6.08a1 1 0 0 1-.89 1.454zm0 10.291a.998.998 0 0 1-.891-.546l-3.84-7.536A1 1 0 0 1 1 13.072h3.84a1 1 0 1 1 0 2H2.633l3.098 6.082a1 1 0 0 1-.89 1.454zm15.487-10.291a1 1 0 0 1-.89-1.454l3.099-6.08h-2.208a1 1 0 1 1 0-2h3.84a1 1 0 0 1 .89 1.454l-3.84 7.534a1 1 0 0 1-.891.546zm0 10.291a1 1 0 0 1-.89-1.454l3.099-6.082h-2.208a1 1 0 1 1 0-2h3.84a1 1 0 0 1 .89 1.454l-3.84 7.537a.998.998 0 0 1-.891.545z"/><circle cx="12.413" cy="9.373" r="4.006"/><circle cx="12.413" cy="19.986" r="4.006"/></symbol><symbol id="play" viewBox="0 0 59.6800957 59.6777"><path d="M29.84 0C13.354 0 0 13.356 0 29.84c0 16.486 13.353 29.838 29.84 29.838 16.483 0 29.84-13.352 29.84-29.838C59.68 13.356 46.323 0 29.84 0zm16.003 30.588L31.698 46.572a.379.379 0 0 1-.663-.25v-7.695a2 2 0 0 0-2-2H17.502a1 1 0 0 1-1-1V24.05a1 1 0 0 1 1-1h11.533a2 2 0 0 0 2-2v-7.682c0-.348.432-.512.663-.25l14.144 15.97a1.13 1.13 0 0 1 0 1.499z"/></symbol><symbol id="presentation" viewBox="0 0 59.400425 56.9945984"><path d="M1.7 44.4c-.937 0-1.7-.762-1.7-1.7v-41C0 .763.763 0 1.7 0h56c.938 0 1.7.763 1.7 1.7v41c0 .938-.762 1.7-1.7 1.7h-56zm4-40c-.717 0-1.3.583-1.3 1.3v33c0 .717.583 1.3 1.3 1.3h48c.717 0 1.3-.583 1.3-1.3v-33c0-.717-.583-1.3-1.3-1.3h-48z"/><circle cx="30.778" cy="52.617" r="4.377"/><circle cx="42.9" cy="52.617" r="4.377"/><circle cx="55.022" cy="52.617" r="4.378"/><path d="M41.34 17.641l-6.442-.936a1.907 1.907 0 0 1-1.432-1.04l-2.881-5.838a.987.987 0 0 0-1.77 0l-2.881 5.837c-.277.56-.814.951-1.433 1.041l-6.441.936a.987.987 0 0 0-.547 1.684l4.66 4.543c.448.436.654 1.069.549 1.684l-1.102 6.415a.988.988 0 0 0 1.434 1.04l5.76-3.028a1.907 1.907 0 0 1 1.771 0l5.762 3.029a.987.987 0 0 0 1.431-1.04l-1.1-6.416c-.105-.615.1-1.248.548-1.684l4.66-4.543a.987.987 0 0 0-.546-1.684z"/></symbol><symbol id="star" viewBox="0 0 10.8334999 10.4994993"><path d="M5.417 0l1.785 3.3 3.631.71-2.527 2.75.458 3.74-3.347-1.6-3.348 1.6.459-3.74L0 4.01l3.631-.71L5.417 0"/></symbol><symbol id="stop" viewBox="0 0 59.6796989 59.6777"><path d="M29.84 0C13.352 0 0 13.355 0 29.84c0 16.486 13.352 29.838 29.84 29.838 16.482 0 29.84-13.352 29.84-29.838C59.68 13.355 46.322 0 29.84 0zm12.332 42.172H17.506V17.506h24.666v24.666z"/></symbol><symbol id="tablet" viewBox="0 0 25.6991997 36.347599"><path d="M24.7 36.348H1a1 1 0 0 1-1-1V2.406a1 1 0 0 1 1-1h7.125v2H2v30.942h21.7V3.406h-6.126v-2H24.7a1 1 0 0 1 1 1v32.942a1 1 0 0 1-1 1z"/><path d="M17.574 4.81H8.125a.5.5 0 0 1-.5-.5V.5a.5.5 0 0 1 .5-.5h9.45a.5.5 0 0 1 .5.5v3.81a.5.5 0 0 1-.5.5zm-8.949-1h8.45V1h-8.45v2.81zm11.428 5.801H5.957a.5.5 0 1 1 0-1h14.096a.5.5 0 1 1 0 1zm0 5.395H5.955a.5.5 0 1 1 0-1h14.098a.5.5 0 1 1 0 1zm0 5.396H5.957a.5.5 0 1 1 0-1h14.096a.5.5 0 1 1 0 1zm0 5.397H5.957a.5.5 0 1 1 0-1h14.096a.5.5 0 1 1 0 1z"/></symbol><symbol id="test" viewBox="0 0 72.2175217 52.6329002"><path d="M71.554 5.068L41.23 34.401a2.907 2.907 0 0 1-3.186.57l-19.249-8.475c-.832-.366-1.576.658-.97 1.337L37.23 49.548a3.066 3.066 0 0 0 4.813-.304L72.144 5.57c.267-.386-.252-.826-.59-.5z"/><path d="M4.465 44.001v-22.96c0-.52.42-.941.94-.941h7.738c4.032 0 7.31-3.282 7.31-7.32V5.22a.94.94 0 0 1 .94-.94h13.995a3.975 3.975 0 0 1 3.974 3.968v19.585l4.277-5.858V7.308C43.64 3.274 40.361 0 36.33 0H18.316c-.448 0-.87.173-1.182.484L.481 17.067c-.31.311-.481.734-.481 1.18v27.071c0 4.03 3.28 7.315 7.315 7.315.002 0 .002-.006.002-.004s.001.004.004.004h5.108c.002 0 .005-.003.005-.005 0-.011.017-.003.028-.003l16.185.007v-4.66H8.444A3.975 3.975 0 0 1 4.464 44zm3.51-28.58L15.8 7.495c.485-.491 1.322-.148 1.322.542v4.742a3.984 3.984 0 0 1-3.979 3.98H8.534a.786.786 0 0 1-.559-1.338z"/></symbol><symbol id="themes-type_camera" viewBox="0 0 15.0004997 9.7510509"><path d="M9.518 0c.542 0 .98.437.98.975v2.234L14.165.142a.493.493 0 0 1 .533-.105.485.485 0 0 1 .302.45v8.776a.488.488 0 0 1-.302.452c-.02.008-.302.123-.533-.107l-3.667-3.066-.002 2.233c0 .54-.438.976-.98.976H.98A.977.977 0 0 1 0 8.775l.002-7.8C.002.437.44 0 .981 0h8.537z"/></symbol><symbol id="themes-type_comment" viewBox="0 0 14.25 13.4997482"><path d="M7.125 0C3.19 0 0 2.89 0 5.866c0 1.853 1.238 3.487 3.12 4.457 0 .012-.012.024-.003.034.445.448-.445 3.143-1.336 3.143 1.477.007 3.563-.899 3.97-2.348a9.33 9.33 0 0 0 1.374.102c3.935 0 7.125-2.412 7.125-5.388S11.06 0 7.125 0z"/></symbol><symbol id="themes-type_eer" viewBox="0 0 60 50.1161194"><path d="M58 5.116L7.752.05a2.053 2.053 0 0 0-2.437 1.507l-.072 12.59c-.143.569-.657.97-1.243.97H2a2 2 0 0 0-2 2v31a2 2 0 0 0 2 2h56a2 2 0 0 0 2-2v-41a2 2 0 0 0-2-2zm-3 39a1 1 0 0 1-1 1H6a1 1 0 0 1-1-1v-23a1 1 0 0 1 1-1h19c1.278 0 2.51-.51 3.414-1.414l7.879-7.879A2.422 2.422 0 0 1 38 10.116h16a1 1 0 0 1 1 1v33z"/></symbol><symbol id="themes-type_foto" viewBox="0 0 13.5018997 11.2496004"><path d="M12.658 2.386H10.67L9.91.624C9.677.234 9.283 0 8.86 0H4.643c-.421 0-.815.234-1.05.623l-.76 1.763H.844c-.466 0-.844.422-.844.942v6.98c0 .52.378.942.844.942h11.814c.466 0 .844-.422.844-.942v-6.98c0-.52-.378-.942-.844-.942zM6.751 8.871c-1.398 0-2.51-1.19-2.51-2.75s1.112-2.926 2.51-2.926S9.26 4.561 9.26 6.121 8.148 8.87 6.75 8.87z"/></symbol><symbol id="themes-type_infografics" viewBox="0 0 59.702198 58.7331123"><path d="M32.867 3.292c-1.658-.053-2.977 1.327-2.977 2.985v22.365a3.63 3.63 0 0 1-1.06 2.56L13.013 47.017c-1.167 1.167-1.227 3.068-.025 4.199 5.159 4.855 11.868 7.518 18.986 7.518 15.289 0 27.727-12.438 27.727-27.727 0-14.992-11.957-27.242-26.835-27.714zm-.892 51.273c-5.04 0-9.889-1.596-13.903-4.537a1.33 1.33 0 0 1-.158-2.016L31.938 33.99a7.256 7.256 0 0 0 2.122-5.121V9.037c0-.783.633-1.45 1.407-1.335 11.434 1.684 20.066 11.48 20.066 23.304 0 12.99-10.568 23.56-23.558 23.56z"/><path d="M24.504 23.365c.78.785 2.12.236 2.125-.87l.082-19.643c.007-1.66-1.373-3.022-3.023-2.835a25.508 25.508 0 0 0-12.82 5.238c-1.318 1.026-1.373 2.974-.196 4.16l13.832 13.95zm-.981 4.1L9.633 13.574c-1.182-1.18-3.13-1.133-4.163.18A25.533 25.533 0 0 0 0 29.588a25.532 25.532 0 0 0 5.47 15.83c1.033 1.313 2.981 1.362 4.163.18l13.89-13.89a3 3 0 0 0 0-4.242z"/></symbol><symbol id="themes-type_pic" viewBox="0 0 36 26.6396828"><path d="M34.56 26.64H1.44A1.44 1.44 0 0 1 0 25.2V1.44C0 .644.644 0 1.44 0h33.12C35.355 0 36 .644 36 1.44V25.2a1.44 1.44 0 0 1-1.44 1.44zM33.407 2.842a.597.597 0 0 0-.595-.599H3.043a.597.597 0 0 0-.595.599v11.883c0 .743 6.192-8.245 6.192-8.245s5.035 8.354 9.072 12.729c.257.05.556.098.883.143 1.16-1.579 3.744-5.098 5.165-7.113 1.365 1.572 3.74 5.49 5.81 7.742 2.224.054 3.837.069 3.837.069V2.842zM27.72 10.08a2.52 2.52 0 1 1 .001-5.04 2.52 2.52 0 0 1-.001 5.04z"/></symbol><symbol id="tier" viewBox="0 0 392 348"><path d="M136.398 218.96c-7.597 6.24-12 15.599-12 25.52v35.442a7.89 7.89 0 0 0 7.922 7.918c4.4 0 7.918-3.52 7.918-7.918V244.48c0-5.199 2.242-10 6.242-13.28 31.442-25.84 65.598-43.04 72.079-46.24 3.52-1.679 5.761-5.28 5.761-9.198V125.84a7.94 7.94 0 0 0-3.52-6.56c-4.32-2.882-6.878-7.678-6.878-12.8V54.72c0-21.361 17.36-38.72 38.719-38.72h11.12c21.36 0 38.72 17.359 38.72 38.72v51.76c0 5.122-2.56 9.918-6.88 12.8-2.242 1.44-3.523 3.919-3.523 6.56v49.84c0 3.922 2.242 7.52 5.762 9.199 6.558 3.2 40.64 20.402 72.082 46.242 3.918 3.277 6.238 8.078 6.238 13.277v35.442a7.889 7.889 0 0 0 7.918 7.922A7.89 7.89 0 0 0 392 279.84v-35.442c0-9.918-4.398-19.199-12-25.52-29.281-24.077-60.8-40.956-72.078-46.718v-42.558c6.558-5.922 10.398-14.321 10.398-23.282V54.56C318.32 24.48 293.84 0 263.762 0H252.64c-30.082 0-54.563 24.48-54.563 54.56v51.76c0 8.96 3.844 17.36 10.402 23.282v42.558c-11.28 5.762-42.718 22.719-72.082 46.8zm0 0"/><path d="M114.96 50.56h-9.038C80.642 50.56 60 71.12 60 96.48v42.161a26.85 26.85 0 0 0 8.48 19.597v33.121C58.641 196.4 33.602 210 10.32 229.121 3.762 234.481 0 242.481 0 251.04v28.883a7.887 7.887 0 0 0 7.922 7.918 7.886 7.886 0 0 0 7.918-7.918V251.04c0-3.758 1.68-7.277 4.558-9.68 25.524-20.96 53.122-34.879 58.48-37.52 3.36-1.6 5.52-5.12 5.52-8.8v-40.641c0-2.636-1.359-5.117-3.52-6.558-3.116-2.078-4.956-5.52-4.956-9.199V96.48c0-16.558 13.519-30.082 30.078-30.082h9.04c16.562 0 30.081 13.524 30.081 30.082v42.161c0 3.679-1.84 7.121-4.96 9.199-2.24 1.44-3.52 3.922-3.52 6.558v33.364a7.885 7.885 0 0 0 7.918 7.918 7.886 7.886 0 0 0 7.921-7.918v-29.524a26.85 26.85 0 0 0 8.48-19.597V96.48c-.081-25.359-20.64-45.92-46-45.92zm160.4 131.518a7.889 7.889 0 0 0-7.92 7.922c0 5.121-4.16 9.2-9.203 9.2-1.918 0-3.68-.56-5.117-1.598a6.217 6.217 0 0 0-1.121-.883c-1.84-1.68-2.96-4.078-2.96-6.797A7.886 7.886 0 0 0 241.12 182a7.887 7.887 0 0 0-7.922 7.922c0 6.398 2.403 12.156 6.32 16.637L234.16 324.64a7.987 7.987 0 0 0 2.64 6.238l16.72 15.043c1.52 1.36 3.44 2.078 5.28 2.078 1.919 0 3.759-.64 5.278-2l16.48-14.8a7.987 7.987 0 0 0 2.641-6.24l-5.12-119.519a24.694 24.694 0 0 0 5.362-15.363c-.16-4.398-3.761-8-8.082-8zM258.718 329.52l-8.64-7.758 4.8-106.801c1.043.16 2.16.238 3.2.238 1.44 0 2.882-.16 4.32-.398L267.038 322l-8.32 7.52zm0 0"/></symbol><symbol id="tier-talk" viewBox="0 0 365.6796875 391.1991882"><path d="M205.281 144.961a34.198 34.198 0 0 0 11.758-25.84v-58.48C217.04 27.2 189.84 0 156.398 0H143.84c-33.442 0-60.641 27.2-60.641 60.641v58.48c0 10 4.321 19.359 11.762 25.84v49.2c-12.16 6.16-48.242 25.359-81.762 52.878C4.801 253.922 0 264.16 0 275.04v40.082a7.887 7.887 0 0 0 7.922 7.918 7.886 7.886 0 0 0 7.918-7.918V275.04c0-6.16 2.72-11.918 7.44-15.758 35.599-29.281 74.322-48.8 81.68-52.402 3.6-1.758 5.919-5.438 5.919-9.438V141.04c0-2.641-1.359-5.117-3.52-6.559-5.199-3.44-8.238-9.199-8.238-15.359v-58.48c0-24.719 20.078-44.8 44.8-44.8h12.477c24.723 0 44.801 20.081 44.801 44.8v58.48c0 6.16-3.12 11.918-8.238 15.359-2.242 1.442-3.52 3.918-3.52 6.56v56.401a7.886 7.886 0 0 0 7.918 7.918 7.887 7.887 0 0 0 7.922-7.918v-52.48zm0 0"/><path d="M169.52 205.68a7.886 7.886 0 0 0-7.918 7.922c0 3.277-1.442 6.32-3.68 8.398a9.15 9.15 0 0 0-1.363 1.121c-1.84 1.2-4 1.918-6.399 1.918-6.32 0-11.44-5.117-11.44-11.437a7.887 7.887 0 0 0-7.92-7.922 7.887 7.887 0 0 0-7.921 7.922c0 6.476 2.242 12.398 6 17.039l-5.84 135.437a8.137 8.137 0 0 0 2.641 6.242l18.558 16.801c1.524 1.36 3.442 2.078 5.282 2.078 1.92 0 3.839-.719 5.28-2.078l18.88-17.043a8.002 8.002 0 0 0 2.64-6.238L170.238 232c4.481-4.879 7.203-11.281 7.203-18.398 0-4.32-3.601-7.922-7.921-7.922zm-20 166.96l-10.48-9.44 5.28-122.802c1.84.403 3.84.641 5.84.641 1.602 0 3.12-.16 4.64-.398l5.52 122.32-10.8 9.68zm192.558-156.8c-15.2-15.2-35.36-23.52-56.879-23.52-21.52 0-41.68 8.399-56.879 23.52-28.718 28.719-31.36 74.32-6.8 106-2.801 5.2-6 8.64-9.442 10.398-4.238 2.082-6.559 6.563-5.84 11.282.723 4.64 4.32 8.242 8.961 9.039 1.922.32 3.922.48 6 .48 9.442 0 19.36-3.039 27.84-8.398a81.068 81.068 0 0 0 36.242 8.558c21.52 0 41.68-8.398 56.88-23.52 15.198-15.199 23.519-35.359 23.519-56.878-.078-21.52-8.399-41.762-23.602-56.961zm-11.2 102.558c-12.16 12.16-28.398 18.883-45.679 18.883-11.52 0-22.8-3.043-32.719-8.883-1.28-.718-2.64-1.117-4-1.117a7.832 7.832 0 0 0-4.878 1.68c-4.083 3.2-8.243 5.117-11.84 6.32 2.316-3.203 4.476-7.043 6.316-11.36 1.203-2.8.723-6.081-1.36-8.401-22.558-25.52-21.359-64.32 2.723-88.48 12.16-12.161 28.399-18.88 45.68-18.88 17.277 0 33.438 6.719 45.68 18.88 12.238 12.16 18.879 28.401 18.879 45.679.082 17.281-6.64 33.52-18.801 45.68zm0 0"/><path d="M294 272.719c0 4.863-3.941 8.8-8.8 8.8a8.8 8.8 0 1 1 0-17.597c4.859 0 8.8 3.937 8.8 8.797zm30.719 0c0 4.863-3.938 8.8-8.797 8.8a8.797 8.797 0 0 1-8.8-8.8 8.796 8.796 0 0 1 8.8-8.797 8.796 8.796 0 0 1 8.797 8.797zm-61.519 0c0 4.863-3.938 8.8-8.802 8.8a8.796 8.796 0 0 1-8.796-8.8 8.796 8.796 0 0 1 8.796-8.797 8.796 8.796 0 0 1 8.801 8.797zm0 0"/></symbol><symbol id="trash" viewBox="0 0 227.5546875 380.5039063"><path d="M164.871 59.546L175.27 30.98 90.145 0 79.75 28.566 17.066 5.75.648 50.855l210.493 76.613 16.414-45.105-62.684-22.817zM104.492 30.76l40.016 14.567-2.188 6.01-40.02-14.565 2.192-6.012zM72 136.503h48v244.001H72zm72 0h48v244.001h-48zm-144 0h48v244.001H0z"/></symbol><symbol id="up-arr" viewBox="0 0 23.2530003 14.2416992"><path d="M23.253 14.242L11.627 3.604 0 14.242v-3.603L11.627 0l11.626 10.639v3.603z"/></symbol><symbol id="user-icon" viewBox="0 0 8.9915295 9.7503319"><path id="bdXMLID_24_" d="M4.493 5.563c1.344 0 2.433-1.245 2.433-2.782C6.926 1.246 5.837 0 4.493 0 3.15 0 2.06 1.246 2.06 2.781c0 1.537 1.09 2.782 2.433 2.782zm4.162 2.791s-.448-1.352-1.099-2.072c-.65-.72-1.412 0-1.412 0s-.336.676-1.458.698h-.38c-1.122-.022-1.458-.698-1.458-.698s-.763-.72-1.413 0S.336 8.354.336 8.354L0 9.052c0 .677.695.698.695.698h7.601s.696-.021.696-.698l-.337-.698z"/></symbol><symbol id="visitors" viewBox="0 0 328.2158813 393.921875"><path d="M275.776 100.56l-14.562 20-14.559-20c-2.16-2.958-6-4.08-9.359-2.72-.562.238-12.961 5.281-24.64 13.121-11.762-7.84-24.083-12.883-24.641-13.121-3.36-1.36-7.2-.238-9.36 2.72l-14.562 20-14.559-20c-2.16-2.958-6-4.08-9.36-2.72-.558.238-12.96 5.281-24.64 13.121-11.758-7.84-24.16-12.883-24.64-13.121-3.36-1.36-7.2-.238-9.36 2.72l-14.558 20-14.563-20c-2.16-2.958-6-4.08-9.359-2.72-.64.238-15.84 6.398-28.481 15.762-3.597 2.636-5.277 4.32-8.238 7.277-11.039 11.043-4.879 56.562-2.082 67.043 3.84 14.078 14.082 32.957 15.684 35.84a46.834 46.834 0 0 1 3.52 13.52l14.397 141.597c.879 8.562 8 15.043 16.641 15.043h24.961c8.637 0 15.758-6.48 16.637-15.043l14.402-141.598a46.826 46.826 0 0 1 3.52-13.52c.238-.48.8-1.44 1.52-2.8.718 1.36 1.28 2.32 1.52 2.8a46.79 46.79 0 0 1 3.518 13.52l14.403 141.598c.878 8.562 8 15.043 16.64 15.043h24.957c8.64 0 15.762-6.48 16.64-15.043l14.403-141.598c.477-4.64 1.68-9.203 3.52-13.52.238-.48.8-1.523 1.52-2.8.718 1.36 1.28 2.32 1.519 2.8a46.825 46.825 0 0 1 3.52 13.52l14.398 141.598c.883 8.562 8 15.043 16.64 15.043h24.961c8.641 0 15.762-6.48 16.641-15.043l14.399-141.598c.48-4.64 1.68-9.203 3.519-13.52 1.602-2.882 11.84-21.761 15.684-35.84 2.879-10.48 8.957-56.081-2.082-67.042-2.961-2.957-4.641-4.641-8.239-7.277-12.722-9.364-27.84-15.524-28.48-15.762-3.36-1.28-7.2-.238-9.36 2.72zM99.854 216.48c-.078.239-.238.399-.32.641-2.64 5.918-4.238 12.16-4.88 18.64l-14.4 141.599c-.078.48-.399.801-.879.801h-24.96c-.477 0-.88-.32-.88-.8l-14.399-141.6c-.64-6.403-2.321-12.723-4.883-18.64-.078-.243-.238-.481-.316-.642-.083-.16-10.883-19.519-14.403-32.64-3.918-14.481-5.039-46.238-1.84-51.918 2.559-2.563 3.68-3.602 6.243-5.524 6.636-4.878 14.398-8.878 19.437-11.359l17.199 23.68c1.52 2.082 3.84 3.281 6.403 3.281 2.558 0 4.878-1.2 6.398-3.281l17.199-23.68c3.281 1.602 7.762 3.84 12.242 6.563-10.16 12.078-4.242 56.078-1.44 66.398 1.28 4.719 3.28 10 5.44 15.04-3.601 7.44-6.878 13.358-6.96 13.44zm111.68-32.64c-3.52 13.039-14.32 32.398-14.398 32.64-.082.239-.242.399-.32.641-2.641 5.918-4.243 12.16-4.88 18.64L177.535 377.36c-.078.48-.398.801-.879.801h-24.961c-.48 0-.879-.32-.879-.8l-14.402-141.598c-.637-6.403-2.32-12.723-4.879-18.64-.078-.243-.238-.481-.32-.642-.078-.16-10.879-19.519-14.399-32.64-3.92-14.481-5.039-46.238-1.839-51.918 2.558-2.563 3.679-3.602 6.238-5.524 6.64-4.878 14.402-8.878 19.44-11.359l17.2 23.68c1.52 2.082 3.84 3.281 6.399 3.281 2.563 0 4.883-1.2 6.402-3.281l17.2-23.68c5.039 2.402 12.718 6.402 19.441 11.359 2.559 1.922 3.68 2.96 6.238 5.524 3.04 5.68 1.922 37.437-2 51.918zm98.961-51.918c3.2 5.68 2.16 37.437-1.84 51.918-3.52 13.039-14.32 32.398-14.402 32.64-.078.239-.238.399-.316.641-2.641 5.918-4.243 12.16-4.883 18.64L274.655 377.36c-.082.48-.402.801-.879.801h-24.96c-.481 0-.88-.32-.88-.8l-14.402-141.598c-.64-6.403-2.32-12.723-4.879-18.64-.082-.243-.242-.481-.32-.642 0-.082-3.281-5.921-6.879-13.44 2.16-5.04 4.16-10.321 5.438-15.04 2.8-10.238 8.722-54.238-1.438-66.398 4.559-2.723 8.957-4.96 12.238-6.563l17.2 23.68c1.52 2.082 3.84 3.281 6.402 3.281 2.559 0 4.879-1.2 6.398-3.281l17.2-23.68c5.043 2.402 12.722 6.402 19.441 11.359 2.559 1.922 3.602 2.96 6.16 5.524zM236.093 77.44c6 6.798 14.402 10.482 24.402 10.72h1.442c10-.238 18.398-3.922 24.476-10.72 12.8-14.4 10.961-38.4 10.64-41.44C295.777 9.52 277.297.078 261.938.078h-1.442c-15.36 0-33.84 9.442-35.12 35.922-.24 2.961-2.079 27.04 10.718 41.44zm5.12-40v-.479c.88-18.32 12.481-21.04 19.282-21.04h1.442c6.879 0 18.476 2.72 19.277 21.04v.48c.562 5.438.48 21.438-6.8 29.52-3.118 3.519-7.438 5.277-13.118 5.359h-.242c-5.68-.082-10-1.84-13.2-5.359-7.12-8.16-7.199-24.082-6.64-29.52zM66.093 88.078h1.441c9.922-.238 18.32-3.918 24.403-10.72 12.796-14.397 10.957-38.397 10.636-41.436C101.296 9.44 82.815 0 67.456 0h-1.44C50.654 0 32.174 9.44 30.893 35.922c-.321 2.957-2.161 27.039 10.64 41.437 6.16 6.879 14.64 10.563 24.56 10.719zM46.815 37.44v-.48c.801-18.32 12.481-21.04 19.278-21.04h1.441c6.88 0 18.481 2.72 19.281 21.04v.48c0 .161 1.84 19.758-6.722 29.438-3.117 3.519-7.438 5.28-13.199 5.359h-.24c-5.678-.078-10-1.84-13.12-5.36-7.199-8.077-7.36-24-6.719-29.437zm116.399 50.638h1.44c10.001-.238 18.4-3.918 24.482-10.72 12.8-14.397 10.957-38.397 10.64-41.436C198.496 9.44 180.015 0 164.655 0h-1.441c-15.36 0-33.84 9.44-35.12 35.922-.318 2.957-2.157 27.039 10.639 41.437 6.161 6.8 14.563 10.563 24.48 10.719zM144.015 37.44v-.48c.88-18.32 12.48-21.04 19.281-21.04h1.437c6.883 0 18.48 2.72 19.282 21.04v.48c0 .161 1.84 19.758-6.719 29.438-3.121 3.519-7.441 5.28-13.203 5.359h-.239c-5.68-.078-10-1.84-13.2-5.36-7.12-8.077-7.198-24-6.639-29.437zm0 0"/></symbol><symbol id="zoom-loop" viewBox="0 0 57.350235 57.4715462"><path d="M56.536 43.048l-7.61-8.102c-.398-.423-.561-1.028-.368-1.576 3.121-8.802 1.163-19.003-5.88-26.048-9.763-9.763-25.593-9.763-35.356 0-9.763 9.763-9.763 25.593 0 35.356 7.013 7.012 17.153 8.982 25.929 5.921.545-.19 1.144-.012 1.552.395l6.479 6.479c.938.937 2 1.864 3.32 1.977 1.805.154 4.81-.44 8.678-4.308 6.513-6.512 3.256-10.094 3.256-10.094zm-17.394-3.906c-7.81 7.81-20.473 7.81-28.285 0-7.81-7.81-7.81-20.474 0-28.284 7.81-7.81 20.474-7.81 28.285 0 7.81 7.81 7.81 20.474 0 28.284z"/><path d="M34.656 22.548h-6.525a.932.932 0 0 1-.932-.932v-6.525c0-1.03-.834-1.865-1.864-1.864h-.933c-1.03 0-1.863.834-1.863 1.864v6.525a.931.931 0 0 1-.932.932h-6.525c-1.03 0-1.864.834-1.864 1.863v.933a1.862 1.862 0 0 0 1.864 1.864h6.524a.93.93 0 0 1 .933.933v6.524c0 1.03.834 1.864 1.864 1.864h.932a1.865 1.865 0 0 0 1.864-1.864V28.14c0-.514.418-.932.932-.932h6.525c1.03 0 1.863-.834 1.863-1.864l.001-.932c0-1.03-.835-1.864-1.864-1.864z"/></symbol></svg>