<?xml version="1.0" encoding="utf-8"?>
<!-- Generator: Adobe Illustrator 17.0.0, SVG Export Plug-In . SVG Version: 6.00 Build 0)  -->
<!DOCTYPE svg PUBLIC "-//W3C//DTD SVG 1.1//EN" "http://www.w3.org/Graphics/SVG/1.1/DTD/svg11.dtd">
<svg version="1.1" id="icon" xmlns="http://www.w3.org/2000/svg" xmlns:xlink="http://www.w3.org/1999/xlink" x="0px" y="0px"
	 width="25.699px" height="36.348px" viewBox="0 0 25.699 36.348" enable-background="new 0 0 25.699 36.348" xml:space="preserve">
<g>
	<g>
		<path fill="#707070" d="M24.699,36.348H1c-0.553,0-1-0.447-1-1V2.406c0-0.553,0.447-1,1-1h7.125v2H2v30.941h21.699V3.406h-6.125
			v-2h7.125c0.553,0,1,0.447,1,1v32.941C25.699,35.9,25.252,36.348,24.699,36.348z"/>
	</g>
	<g>
		<path fill="#707070" d="M17.574,4.811H8.125c-0.276,0-0.5-0.224-0.5-0.5V0.5c0-0.276,0.224-0.5,0.5-0.5h9.449
			c0.276,0,0.5,0.224,0.5,0.5v3.811C18.074,4.587,17.851,4.811,17.574,4.811z M8.625,3.81h8.449V1H8.625V3.81z"/>
	</g>
	<g>
		<path fill="#707070" d="M20.053,9.611H5.957c-0.276,0-0.5-0.224-0.5-0.5c0-0.276,0.224-0.5,0.5-0.5h14.096
			c0.276,0,0.5,0.224,0.5,0.5C20.553,9.388,20.329,9.611,20.053,9.611z"/>
	</g>
	<g>
		<path fill="#707070" d="M20.053,15.006H5.955c-0.276,0-0.5-0.224-0.5-0.5c0-0.276,0.224-0.5,0.5-0.5h14.098
			c0.276,0,0.5,0.224,0.5,0.5C20.553,14.782,20.329,15.006,20.053,15.006z"/>
	</g>
	<g>
		<path fill="#707070" d="M20.053,20.402H5.957c-0.276,0-0.5-0.224-0.5-0.5s0.224-0.5,0.5-0.5h14.096c0.276,0,0.5,0.224,0.5,0.5
			S20.329,20.402,20.053,20.402z"/>
	</g>
	<g>
		<path fill="#707070" d="M20.053,25.799H5.957c-0.276,0-0.5-0.224-0.5-0.5s0.224-0.5,0.5-0.5h14.096c0.276,0,0.5,0.224,0.5,0.5
			S20.329,25.799,20.053,25.799z"/>
	</g>
</g>
</svg>
