<?xml version="1.0" encoding="utf-8"?>
<!-- Generator: Adobe Illustrator 19.0.0, SVG Export Plug-In . SVG Version: 6.00 Build 0)  -->
<svg version="1.1" id="Режим_изоляции"
	 xmlns="http://www.w3.org/2000/svg" xmlns:xlink="http://www.w3.org/1999/xlink" x="0px" y="0px" width="59.9013901px"
	 height="51.2726669px" viewBox="0 0 59.9013901 51.2726669" style="enable-background:new 0 0 59.9013901 51.2726669;"
	 xml:space="preserve">
<style type="text/css">
	.st0{fill:#FFFAFA;}
</style>
<g>
	<path class="st0" d="M58.0644913,29.0757008c-0.9873009-0.9722004-2.1386986-1.5547009-3.4336014-1.7388
		c-0.8212967-0.1172009-1.5556984-0.6928005-1.6074982-1.5205002c-0.4071999-6.5179996-2.3685989-14.2143002-6.1987-18.5853996
		C42.6200905,2.4326,36.9745941,0,30.0458927,0c-6.9253006,0-12.6005993,2.4307001-16.8682003,7.2245998
		C9.2880926,11.5928001,7.295393,19.2924995,6.8822932,25.8153992c-0.0512004,0.8116016-0.7402,1.4146004-1.5502934,1.4869003
		c-1.5229068,0.1362-2.7763066,0.7480011-3.7338066,1.8241997C0.5375932,30.3188992,0,31.7534008,0,33.3911018v5.9218979
		c0,1.6636009,0.5785931,3.0830002,1.7177931,4.2178001c1.1367,1.1371994,2.5556002,1.7137985,4.2178001,1.7137985h2.4970002
		c1.6567993,0,3-1.3431969,3-3V28.3169003c0-6.1450005,1.7031994-14.4214001,4.958499-18.3506012
		c3.2856998-3.9657998,7.6895008-5.8930001,13.4643993-5.8930001c5.7719002,0,10.2080002,1.9594002,13.5610008,5.9896998
		c3.3168983,3.9907007,5.0522995,12.2035999,5.0522995,18.2539005v13.9276981c0,1.6568031,1.3432083,3,3,3h2.3100014
		c1.6592064,0,3.1098976-0.608799,4.3085976-1.8070984c1.2036095-1.1987,1.8139992-2.5858994,1.8139992-4.1245003v-5.9218979
		C59.9013901,31.7329006,59.2841911,30.2817993,58.0644913,29.0757008z"/>
	<path class="st0" d="M35.0771904,25.5077991c-0.256897-0.5087986-0.3354988-1.0863991-0.5170975-1.6264
		c-0.1827011-0.5410995-0.9302025-0.6523991-1.158699-0.1288986c-0.1001015,0.2299004-0.1211014,0.4755001-0.1211014,0.4755001
		l-4.1376991,18.6333008c-0.1607018,0.7241974-1.0142002,0.9433975-1.711401,0.6904984
		c-1.1704006-0.4248009-2.6415997-0.5200005-4.1669998-0.1861c-3.1777992,0.6918983-5.3745003,2.9799995-4.9101925,5.108902
		c0.4628925,2.1279984,3.414093,3.2915001,6.5917931,2.5971985c2.2035999-0.4799995,3.9326-1.7299995,4.6317997-3.161602
		c0.0186005-0.0380974,0.0674076-0.1269989,0.0776997-0.0854988c0.0053997,0.0205002,0.0459003,0.0200005,0.0503006-0.0004997
		l0.1390991-0.6469002c0.0009995-0.0043983,0.0053997-0.0083008,0.0039005-0.0131989
		c-0.0039005-0.0049019,0.0039005-0.0121994,0.0054073-0.0186005l3.2016907-14.7890015
		c0.1855011-0.8574982,1.0234032-1.4838982,1.8222008-1.1220989c1.9532013,0.8837986,2.9496994,3.163599,2.9496994,3.163599
		c2.5195999,4.9770012-1.2386971,8.974102-1.2386971,8.974102c-0.3798943,0.5038986-0.6363029,0.9125977-0.8052025,1.2440987
		c-0.3856926,0.7578011,0.5771027,1.4864006,1.1816025,0.8887024c0.4097061-0.4043007,0.7290001-0.8726006,0.7290001-0.8726006
		c2.0112991-3.1723022,4.7890968-6.5527,1.532299-11.7734032C37.2221909,29.6494007,35.7480927,26.8363991,35.0771904,25.5077991z"
		/>
</g>
</svg>
