<?xml version="1.0" encoding="utf-8"?>
<!-- Generator: Adobe Illustrator 19.0.0, SVG Export Plug-In . SVG Version: 6.00 Build 0)  -->
<svg version="1.1" id="Слой_1" xmlns="http://www.w3.org/2000/svg" xmlns:xlink="http://www.w3.org/1999/xlink" x="0px" y="0px"
	 width="11.2500229px" height="11.9999151px" viewBox="0 0 11.2500229 11.9999151"
	 style="enable-background:new 0 0 11.2500229 11.9999151;" xml:space="preserve">
<style type="text/css">
	.st0{fill-rule:evenodd;clip-rule:evenodd;fill:#FFFFFF;}
</style>
<g>
	<g id="XMLID_146_">
		<path id="XMLID_147_" class="st0" d="M9.7500229,5.2498779H7.5000234V7.5h2.2499995V5.2498779z M9.0000229,6.7496948h-0.75
			V5.9998169h0.75V6.7496948z M9.7500229,8.2498169H7.5000234v2.25h2.2499995V8.2498169z M9.0000229,9.7498169h-0.75V8.9995728h0.75
			V9.7498169z M6.7500234,5.2498779h-2.25V7.5h2.25V5.2498779z M6.0000234,6.7496948h-0.75V5.9998169h0.75V6.7496948z
			 M8.2500229,0.7498169V0H7.5000234v0.7498169h-3.75V0h-0.75v0.7498169h-3v11.250061h11.25V0.7498169H8.2500229z
			 M10.5000229,11.2498779h-9.75V3.7496948h9.75V11.2498779z M10.5000229,2.9996948h-9.75V1.4998169h2.25v0.75h0.75v-0.75h3.75v0.75
			h0.7499995v-0.75h2.25V2.9996948z M6.7500234,8.2498169h-2.25v2.25h2.25V8.2498169z M6.0000234,9.7498169h-0.75V8.9995728h0.75
			V9.7498169z M3.7500234,8.2498169h-2.25v2.25h2.25V8.2498169z M3.0000234,9.7498169h-0.75V8.9995728h0.75V9.7498169z
			 M3.7500234,5.2498779h-2.25V7.5h2.25V5.2498779z M3.0000234,6.7496948h-0.75V5.9998169h0.75V6.7496948z"/>
	</g>
</g>
</svg>
