<?xml version="1.0" encoding="utf-8"?>
<!-- Generator: Adobe Illustrator 19.0.0, SVG Export Plug-In . SVG Version: 6.00 Build 0)  -->
<svg version="1.1" id="Слой_1" xmlns="http://www.w3.org/2000/svg" xmlns:xlink="http://www.w3.org/1999/xlink" x="0px" y="0px"
	 width="139.3905945px" height="139.3906097px" viewBox="0 0 139.3905945 139.3906097"
	 style="enable-background:new 0 0 139.3905945 139.3906097;" xml:space="preserve">
<style type="text/css">
	.st0{fill:#FFFFFF;}
</style>
<path class="st0" d="M69.6947861,0C31.2660904,0,0,31.2661076,0,69.6953049
	C0,108.125,31.2660904,139.3906097,69.6947861,139.3906097c38.4302139,0,69.6958084-31.2656097,69.6958084-69.6953049
	C139.3905945,31.2661076,108.125,0,69.6947861,0L69.6947861,0z M69.6947861,127.4453049
	c-31.8397865,0-57.7460938-25.9061966-57.7460938-57.75c0-31.8403053,25.9063091-57.7460938,57.7460938-57.7460938
	c31.8442993,0,57.7505035,25.9057903,57.7505035,57.7460938
	C127.4452896,101.5391083,101.5351868,127.4453049,69.6947861,127.4453049L69.6947861,127.4453049z M69.6947861,127.4453049"/>
<path class="st0" d="M69.9921875,76.3096085h29.6348114c3.531189,0,6.2900009-2.7666092,6.2900009-6.2968979
	c0-3.5313034-2.758812-6.2979012-6.2900009-6.2979012h-23.336998V27.1763077c0-3.5313072-2.7666092-6.2973995-6.2978134-6.2973995
	c-3.5312958,0-6.2968979,2.7660923-6.2968979,6.2973995v42.8364029
	C63.6952896,73.5429993,66.4608917,76.3096085,69.9921875,76.3096085L69.9921875,76.3096085z M69.9921875,76.3096085"/>
</svg>
