<?xml version="1.0" encoding="utf-8"?>
<!-- Generator: Adobe Illustrator 19.0.0, SVG Export Plug-In . SVG Version: 6.00 Build 0)  -->
<svg version="1.1" id="Слой_1" xmlns="http://www.w3.org/2000/svg" xmlns:xlink="http://www.w3.org/1999/xlink" x="0px" y="0px"
	 width="139.3905945px" height="139.3906097px" viewBox="0 0 139.3905945 139.3906097"
	 style="enable-background:new 0 0 139.3905945 139.3906097;" xml:space="preserve">
<style type="text/css">
	.st0{fill:#FFFFFF;}
</style>
<g>
	<path class="st0" d="M69.6947861,0C31.2660904,0,0,31.2661076,0,69.6953049
		C0,108.125,31.2660904,139.3906097,69.6947861,139.3906097c38.4302139,0,69.6958084-31.2656097,69.6958084-69.6953049
		C139.3905945,31.2661076,108.125,0,69.6947861,0L69.6947861,0z M69.6947861,127.4453049
		c-31.8397865,0-57.7460938-25.9061966-57.7460938-57.75c0-31.8403053,25.9063091-57.7460938,57.7460938-57.7460938
		c31.8442993,0,57.7505035,25.9057903,57.7505035,57.7460938
		C127.4452896,101.5391083,101.5351868,127.4453049,69.6947861,127.4453049L69.6947861,127.4453049z M69.6947861,127.4453049"/>
	<path class="st0" d="M96.6640854,42.7299995c-2.3320847-2.3320923-6.1171951-2.3320923-8.4452972,0L69.6947861,61.2539063
		L51.1757889,42.7299995c-2.3359985-2.3320923-6.1137886-2.3320923-8.4487,0c-2.3320885,2.335907-2.3320885,6.1142082,0,8.4502068
		L61.25,69.6992111L42.7270889,88.2227097c-2.3320885,2.3368988-2.3320885,6.1131973,0,8.4491959
		c1.1679115,1.1640015,2.6948013,1.75,4.2260017,1.75c1.5269089,0,3.0591011-0.5820999,4.2226982-1.75L69.6947861,78.148407
		l18.5240021,18.5234985c1.1640015,1.1640015,2.6913986,1.75,4.2226028,1.75c1.5273972,0,3.0546951-0.5820999,4.2226944-1.75
		C99,94.335907,99,90.5596085,96.6640854,88.2227097L78.1444855,69.7031097l18.5195999-18.5229034
		C98.9960861,48.8442078,98.9960861,45.0659065,96.6640854,42.7299995L96.6640854,42.7299995z M96.6640854,42.7299995"/>
</g>
</svg>
