<?xml version="1.0" encoding="utf-8"?>
<!-- Generator: Adobe Illustrator 19.0.0, SVG Export Plug-In . SVG Version: 6.00 Build 0)  -->
<svg version="1.1" id="Слой_1" xmlns="http://www.w3.org/2000/svg" xmlns:xlink="http://www.w3.org/1999/xlink" x="0px" y="0px"
	 width="139.3905945px" height="139.3906097px" viewBox="0 0 139.3905945 139.3906097"
	 style="enable-background:new 0 0 139.3905945 139.3906097;" xml:space="preserve">
<style type="text/css">
	.st0{fill:#FFFFFF;}
</style>
<path class="st0" d="M69.6947861,0C31.2660904,0,0,31.2661076,0,69.6953049
	C0,108.125,31.2660904,139.3906097,69.6947861,139.3906097c38.4302139,0,69.6958084-31.2656097,69.6958084-69.6953049
	C139.3905945,31.2661076,108.125,0,69.6947861,0L69.6947861,0z M69.6947861,127.4453049
	c-31.8397865,0-57.7460938-25.9061966-57.7460938-57.75c0-31.8403053,25.9063091-57.7460938,57.7460938-57.7460938
	c31.8442993,0,57.7505035,25.9057903,57.7505035,57.7460938
	C127.4452896,101.5391083,101.5351868,127.4453049,69.6947861,127.4453049L69.6947861,127.4453049z M69.6947861,127.4453049"/>
<polygon class="st0" points="95.5478897,43.14991 106.0097885,53.6523094 64.0844879,95.5693054 37.8798904,69.3594055 
	48.3417892,58.8613091 64.0844879,74.6084061 "/>
</svg>
