<?xml version="1.0" encoding="utf-8"?>
<!-- Generator: Adobe Illustrator 19.0.0, SVG Export Plug-In . SVG Version: 6.00 Build 0)  -->
<svg version="1.1" id="Слой_1" xmlns="http://www.w3.org/2000/svg" xmlns:xlink="http://www.w3.org/1999/xlink" x="0px" y="0px"
	 width="285.8007813px" height="375.3970032px" viewBox="0 0 285.8007813 375.3970032"
	 style="enable-background:new 0 0 285.8007813 375.3970032;" xml:space="preserve">
<style type="text/css">
	.st0{fill:#010203;}
</style>
<path class="st0" d="M283.3104858,72.8881989L212.911087,2.4931998C211.3329926,0.9087,209.1405945,0,206.8983917,0H21.3007927
	C9.5556927,0,0,9.5556993,0,21.3008003v332.8012695c0,11.7420959,9.5556927,21.2949219,21.3007927,21.2949219H264.5
	c11.7450867,0,21.3007813-9.5528259,21.3007813-21.2949219V78.897995
	C285.8007813,76.661087,284.8935852,74.4706955,283.3104858,72.8881989z M17,21.3008003C17,18.9291992,18.9291916,17,21.3007927,17
	h177.0975952v49.1020889c0,11.7426071,9.5556946,21.2959061,21.3007965,21.2959061h49.101593v266.7041016
	c0,2.368103-1.9296875,4.2949219-4.3007813,4.2949219H21.3007927c-2.3716011,0-4.3007927-1.9268188-4.3007927-4.2949219V21.3008003z
	 M219.6991882,70.397995c-2.3710938,0-4.3007965-1.9272995-4.3007965-4.2959061V29.0189991l41.3818817,41.3789978H219.6991882z"/>
<path class="st0" d="M53.3007927,209.0004883h12.8012962C74.3168945,209.0004883,81,202.3168945,81,194.1020813v-12.8012848
	c0-8.2173004-6.6831055-14.9028015-14.8979111-14.9028015H53.3007927c-8.2173004,0-14.9029007,6.6855011-14.9029007,14.9028015
	v12.8012848C38.397892,202.3168945,45.0834923,209.0004883,53.3007927,209.0004883z M55.397892,192.0004883v-8.6024933H64v8.6024933
	H55.397892z"/>
<path class="st0" d="M98.1020889,197.397995h57.5970993c4.6865082,0,8.5-3.8135071,8.5-8.5c0-4.6871033-3.8134918-8.5-8.5-8.5
	H98.1020889c-4.687088,0-8.5,3.8128967-8.5,8.5C89.6020889,193.5844879,93.4150009,197.397995,98.1020889,197.397995z"/>
<path class="st0" d="M53.3007927,151.397995h12.8012962C74.3168945,151.397995,81,144.714798,81,136.5v-12.8013
	c0-8.2148056-6.6831055-14.8979034-14.8979111-14.8979034H53.3007927c-8.2173004,0-14.9029007,6.6830978-14.9029007,14.8979034
	V136.5C38.397892,144.714798,45.0834923,151.397995,53.3007927,151.397995z M55.397892,134.397995v-8.5971985H64v8.5971985
	H55.397892z"/>
<path class="st0" d="M98.1020889,137.397995h140.7962952c4.686615,0,8.5-3.8130035,8.5-8.5c0-4.6870956-3.813385-8.5-8.5-8.5
	H98.1020889c-4.687088,0-8.5,3.8129044-8.5,8.5C89.6020889,133.5849915,93.4150009,137.397995,98.1020889,137.397995z"/>
<path class="st0" d="M53.3007927,93.8007965h12.8012962C74.3168945,93.8007965,81,87.1151962,81,78.897995V66.1020889
	C81,57.8843002,74.3168945,51.1987,66.1020889,51.1987H53.3007927c-8.2173004,0-14.9029007,6.6856003-14.9029007,14.903389
	V78.897995C38.397892,87.1151962,45.0834923,93.8007965,53.3007927,93.8007965z M55.397892,76.8007965V68.1987H64v8.6020966
	H55.397892z"/>
<path class="st0" d="M98.1020889,81.1987h57.5970993c4.6865082,0,8.5-3.8130035,8.5-8.5c0-4.6870041-3.8134918-8.5-8.5-8.5
	H98.1020889c-4.687088,0-8.5,3.8129959-8.5,8.5C89.6020889,77.3856964,93.4150009,81.1987,98.1020889,81.1987z"/>
<path class="st0" d="M53.3007927,324.199707h12.8012962C74.3168945,324.199707,81,317.5160828,81,309.3013v-12.8008118
	c0-8.2149048-6.6831055-14.898407-14.8979111-14.898407H53.3007927c-8.2173004,0-14.9029007,6.6835022-14.9029007,14.898407
	V309.3013C38.397892,317.5160828,45.0834923,324.199707,53.3007927,324.199707z M55.397892,307.199707v-8.5976257H64v8.5976257
	H55.397892z"/>
<path class="st0" d="M98.1020889,309.199707h83.1986923c4.6865082,0,8.5-3.8135071,8.5-8.5c0-4.6865234-3.8134918-8.5-8.5-8.5
	H98.1020889c-4.687088,0-8.5,3.8134766-8.5,8.5C89.6020889,305.3862,93.4150009,309.199707,98.1020889,309.199707z"/>
<path class="st0" d="M53.3007927,266.6020813h12.8012962C74.3168945,266.6020813,81,259.9165039,81,251.6996918v-12.8027039
	c0-8.2138977-6.6831055-14.8964996-14.8979111-14.8964996H53.3007927c-8.2173004,0-14.9029007,6.6826019-14.9029007,14.8964996
	v12.8027039C38.397892,259.9165039,45.0834923,266.6020813,53.3007927,266.6020813z M55.397892,249.6020813v-8.601593H64v8.601593
	H55.397892z"/>
<path class="st0" d="M98.1020889,256.0004883h83.1986923c4.6865082,0,8.5-3.8134918,8.5-8.5c0-4.6864929-3.8134918-8.5-8.5-8.5
	H98.1020889c-4.687088,0-8.5,3.8135071-8.5,8.5C89.6020889,252.1869965,93.4150009,256.0004883,98.1020889,256.0004883z"/>
</svg>
