<?xml version="1.0" encoding="utf-8"?>
<!-- Generator: Adobe Illustrator 19.0.0, SVG Export Plug-In . SVG Version: 6.00 Build 0)  -->
<svg version="1.1" id="Слой_1" xmlns="http://www.w3.org/2000/svg" xmlns:xlink="http://www.w3.org/1999/xlink" x="0px" y="0px"
	 width="328.00354px" height="328.007782px" viewBox="0 0 328.00354 328.007782"
	 style="enable-background:new 0 0 328.00354 328.007782;" xml:space="preserve">
<style type="text/css">
	.st0{fill:#004199;}
</style>
<path class="st0" d="M319.2457581,31.3866997l-22.625-22.6288986c-2.117218-2.1167002-4.5-3.878912-7.0780945-5.25
	C285.25354,1.2148,280.4254456,0,275.4059448,0c-5.0976868,0-9.9921875,1.2578-14.3320923,3.6166999
	c-1.0585938,0.5781-2.085907,1.2230999-3.0741882,1.9262998c-1.3437195,0.9608884-2.617218,2.0268002-3.804718,3.2148004
	L41.3546638,221.5975952c-0.010807,0.011795-0.0229988,0.0274048-0.0352058,0.039093
	c-0.0469017,0.0469055-0.092701,0.1016083-0.1395988,0.1524048c-0.4771004,0.5195007-0.8643036,1.113205-1.1294022,1.7655945
	l-23.093792,56.0820007c-0.012207,0.0274048-0.0229073,0.0508118-0.0312061,0.0780945L0.4527585,319.7225952
	c-0.9223,2.2421875-0.4100932,4.8164978,1.3046999,6.5274048c0.1441,0.1445007,0.293,0.2772827,0.4492068,0.406189
	c1.0820932,0.8829041,2.4301932,1.351593,3.793,1.351593c0.77,0,1.5468931-0.1483765,2.2851934-0.4530945l40.0238991-16.4804993
	l0.0389977-0.0155945l56.1050034-23.101593c0.6489944-0.2655945,1.2416992-0.6523132,1.7616959-1.1289063
	c0.0552139-0.0469055,0.1050034-0.093689,0.1563034-0.1405945c0.0116959-0.0117188,0.0267944-0.023407,0.0391006-0.0352173
	l151.5898132-151.5931854l11.8788757-11.8794022c0.0039063-0.0038986,49.367218-49.3666992,49.367218-49.3666992
	c5.648407-5.6488953,8.757782-13.1801987,8.757782-21.2109985C328.00354,44.5658875,324.894165,37.0346985,319.2457581,31.3866997z
	 M268.5152588,13.3476c2.1524048-0.8828001,4.4844055-1.3476,6.890686-1.3476c2.4100952,0,4.7420959,0.4647999,6.8945007,1.3476
	c0.0585938,0.0274,0.117218,0.0581999,0.1719055,0.0820999c0.4725952,0.1991882,0.9375,0.4139996,1.3905945,0.6522999
	c0.1835938,0.0977001,0.3594055,0.2148886,0.5390015,0.3197994c0.3243103,0.1880007,0.6524048,0.3682003,0.9609985,0.5752001
	c0.2655945,0.1747999,0.5195007,0.3790007,0.773407,0.5698891c-0.2539063-0.1908884-0.5078125-0.3910885-0.773407-0.5658884
	c-0.3085938-0.2071114-0.6366882-0.3912001-0.9609985-0.5792007c-0.1795959-0.1009998-0.3554077-0.2177-0.5390015-0.3159113
	c-0.4530945-0.2421885-0.9179993-0.4530878-1.3905945-0.6517887c-0.0585938-0.0282993-0.1133118-0.0590992-0.1719055-0.0820999
	C280.1480408,12.4647999,277.81604,12,275.4059448,12c-2.4062805,0-4.7382813,0.4647999-6.890686,1.3519993
	c-0.0742188,0.0308008-0.148407,0.0698891-0.2225952,0.1006002C268.3668518,13.4179993,268.44104,13.3788881,268.5152588,13.3476z
	 M262.6793518,17.2416992c0.4296875-0.4286995,0.8789063-0.8319988,1.3398132-1.2108994
	c0.203186-0.1641006,0.414093-0.3038006,0.6210938-0.4610004c0.2695923-0.1987,0.5351868-0.4101,0.8125-0.5928001
	c-0.2773132,0.1871004-0.5429077,0.3941002-0.8125,0.5967007c-0.2070007,0.1532993-0.4179077,0.2929993-0.6210938,0.4570999
	c-0.460907,0.3789005-0.9101257,0.7821999-1.3398132,1.2152996l-24.0410004,24.0409985l-0.0019989-0.0023994L262.6793518,17.2416992
	z M204.8131561,114.7128906l-0.0010071,0.0009995c0.0059052-0.0058899,0.0098114-0.0131912,0.0156097-0.0190964
	C204.8219604,114.7001953,204.8189545,114.7070007,204.8131561,114.7128906z M182.1988525,137.3197937
	c0.0098114-0.0101929,0.0225067-0.0166016,0.0332031-0.0267944L73.4015579,246.1171875L182.1988525,137.3197937z
	 M237.3512573,99.1366959l0.0018921,0.0019989l-21.5350952,21.5351028L237.3512573,99.1366959z M56.1539574,223.7714996
	c2.7528992,1.6161957,5.3192978,3.5927887,7.6185989,5.8885956c4.1162987,4.1192017,7.1392021,9,8.9351082,14.2070923
	c-1.7959061-5.2070923-4.8188095-10.0878906-8.9351082-14.2030945c-2.2998009-2.3007965-4.8670998-4.2774048-7.6209984-5.8907013
	L56.1539574,223.7714996z M47.4835587,298.4375L29.569458,280.523407l19.3642998-47.0273132
	c2.3120003,1.1952972,4.460907,2.7577972,6.3549995,4.648407c5.6679077,5.6718903,8.2967987,13.3710938,7.0267982,20.5976868
	c-0.3387985,1.9258118,0.2821999,3.898407,1.6641083,5.2812195c1.3827934,1.382782,3.3558922,2.007782,5.2821922,1.6679993
	c7.2300034-1.2695313,14.9258118,1.3554688,20.5967026,7.0233765c1.8911057,1.8946228,3.4531097,4.0469055,4.6532974,6.3554993
	L47.4835587,298.4375z M104.2335587,271.8554993c-1.6128006-2.7579041-3.5888901-5.3243103-5.8897018-7.625
	c2.3008118,2.3006897,4.2769012,4.8670959,5.8897018,7.6210938l152.918396-152.9136047L104.2335587,271.8554993z
	 M265.6402588,110.4487l-48.085907-48.0820007l12.5975952-12.5928116l48.0820923,48.0821075L265.6402588,110.4487z
	 M316.00354,52.5995979c0-0.6011009-0.0272827-1.2011986-0.0858765-1.794899
	c-0.4024048-4.1450005-2.1992188-7.9726982-5.156311-10.9336014l-22.625-22.6249981
	c-0.4335938-0.4330997-0.8789063-0.8363991-1.343689-1.2152996c0.4647827,0.3789005,0.9100952,0.7821999,1.343689,1.2108994
	l22.625,22.6293983c2.9609985,2.956501,4.7539063,6.7886009,5.156311,10.9336014
	c0.0585938,0.5941887,0.0858765,1.1913986,0.0858765,1.7929001C316.00354,52.5985985,316.00354,52.5990982,316.00354,52.5995979z"/>
</svg>
