<svg id="icon" xmlns="http://www.w3.org/2000/svg" width="27.49" height="38.609" viewBox="0 0 27.490366 38.6089783"><style>.st0{fill:#f9f9f9}</style><path class="st0" d="M12.446 38.609a.999.999 0 0 1-.926-.624L.074 9.86a.999.999 0 1 1 1.852-.754l11.445 28.125a.999.999 0 0 1-.925 1.378zM10.106 22.8a.998.998 0 0 1-.926-.623L3.43 8.044a.999.999 0 0 1 .549-1.303L20.363.074a.999.999 0 0 1 1.325 1.247l-2.966 8.737 8.222 4.184a.998.998 0 0 1-.077 1.817l-16.384 6.667a1 1 0 0 1-.377.074zM5.658 8.216l4.997 12.28 13.431-5.464-7.043-3.584a1 1 0 0 1-.494-1.213l2.541-7.483L5.658 8.216z"/></svg>