<svg id="icon" xmlns="http://www.w3.org/2000/svg" width="37.511" height="29.555" viewBox="0 0 37.5107002 29.5550995"><style>.st0{fill:#f9f9f9}</style><path class="st0" d="M1 29.555a1 1 0 0 1-1-1V1a1 1 0 0 1 1-1h12.102c.297 0 .58.132.77.36L16.6 3.646h18.165a1 1 0 0 1 1 1v7.748a1 1 0 1 1-2 0V5.645H16.13c-.297 0-.58-.132-.77-.361L12.633 2H2v26.555a1 1 0 0 1-1 1z"/><path class="st0" d="M21.62 29.555H1a1 1 0 1 1 0-2h20.62a1 1 0 1 1 0 2zm8.023-.282c-4.338 0-7.868-3.53-7.868-7.868 0-4.338 3.53-7.867 7.868-7.867 4.338 0 7.868 3.529 7.868 7.867 0 4.339-3.53 7.868-7.868 7.868zm0-14.735a6.876 6.876 0 0 0-6.868 6.867 6.876 6.876 0 0 0 6.868 6.868 6.875 6.875 0 0 0 6.868-6.868 6.876 6.876 0 0 0-6.868-6.867z"/><path class="st0" d="M32.468 21.906h-5.649a.5.5 0 1 1 0-1h5.649a.5.5 0 1 1 0 1z"/><path class="st0" d="M29.688 24.73a.5.5 0 0 1-.5-.5v-5.65a.5.5 0 1 1 1 0v5.649a.5.5 0 0 1-.5.5z"/></svg>