<svg id="icon" xmlns="http://www.w3.org/2000/svg" width="39.809" height="18.638" viewBox="0 0 39.8090668 18.6375256"><style>.st0{fill:#f9f9f9}</style><path class="st0" d="M13.19 18.638H5.25A5.255 5.255 0 0 1 0 13.39a5.256 5.256 0 0 1 5.25-5.25h7.94a5.256 5.256 0 0 1 5.25 5.25 5.255 5.255 0 0 1-5.25 5.248zM5.25 10.14A3.254 3.254 0 0 0 2 13.39a3.253 3.253 0 0 0 3.25 3.248h7.94a3.253 3.253 0 0 0 3.25-3.248 3.254 3.254 0 0 0-3.25-3.25H5.25zm29.309 8.498h-7.94a5.255 5.255 0 0 1-5.25-5.248 5.256 5.256 0 0 1 5.25-5.25h7.94a5.256 5.256 0 0 1 5.25 5.25 5.255 5.255 0 0 1-5.25 5.248zm-7.94-8.498a3.254 3.254 0 0 0-3.25 3.25 3.253 3.253 0 0 0 3.25 3.248h7.94a3.253 3.253 0 0 0 3.25-3.248 3.254 3.254 0 0 0-3.25-3.25h-7.94z"/><path class="st0" d="M22.37 14.39h-4.93a1 1 0 1 1 0-2h4.93a1 1 0 1 1 0 2zm-21.369 0a1 1 0 0 1-.972-1.24L3.09.762A1.001 1.001 0 0 1 4.573.144l3.506 2.11A.998.998 0 1 1 7.05 3.967l-2.345-1.41-2.733 11.072a1 1 0 0 1-.97.76zm37.807 0a1 1 0 0 1-.97-.76L35.103 2.557l-2.343 1.41a1 1 0 0 1-1.031-1.713l3.504-2.11a.997.997 0 0 1 1.486.617l3.06 12.388a1 1 0 0 1-.971 1.24z"/></svg>