<svg id="icon" xmlns="http://www.w3.org/2000/svg" width="25.699" height="36.348" viewBox="0 0 25.6991997 36.347599"><style>.st0{fill:#f9f9f9}</style><path class="st0" d="M24.7 36.348H1a1 1 0 0 1-1-1V2.406a1 1 0 0 1 1-1h7.125v2H2v30.942h21.7V3.406h-6.126v-2H24.7a1 1 0 0 1 1 1v32.942a1 1 0 0 1-1 1z"/><path class="st0" d="M17.574 4.81H8.125a.5.5 0 0 1-.5-.5V.5a.5.5 0 0 1 .5-.5h9.45a.5.5 0 0 1 .5.5v3.81a.5.5 0 0 1-.5.5zm-8.949-1h8.45V1h-8.45v2.81zm11.428 5.801H5.957a.5.5 0 1 1 0-1h14.096a.5.5 0 1 1 0 1zm0 5.395H5.955a.5.5 0 1 1 0-1h14.098a.5.5 0 1 1 0 1zm0 5.396H5.957a.5.5 0 1 1 0-1h14.096a.5.5 0 1 1 0 1zm0 5.397H5.957a.5.5 0 1 1 0-1h14.096a.5.5 0 1 1 0 1z"/></svg>