<svg id="icon" xmlns="http://www.w3.org/2000/svg" width="25.168" height="31.68" viewBox="0 0 25.1675892 31.6797009"><style>.st0{fill:#f9f9f9}.st1{fill:none;stroke:#dbdbd9;stroke-miterlimit:10}</style><path class="st0" d="M20.328 31.68H4.84a1 1 0 0 1-1-1V1a1 1 0 0 1 1-1h15.488a1 1 0 0 1 1 1v29.68a1 1 0 0 1-1 1zm-14.488-2h13.488V2H5.84v27.68z"/><path class="st0" d="M4.84 12.317a1 1 0 0 1-.891-.546L.109 4.237A1 1 0 0 1 1 2.783h3.84a1 1 0 1 1 0 2H2.633l3.098 6.08a1 1 0 0 1-.89 1.454zm0 10.291a.998.998 0 0 1-.891-.546l-3.84-7.536A1 1 0 0 1 1 13.072h3.84a1 1 0 1 1 0 2H2.633l3.098 6.082a1 1 0 0 1-.89 1.454zm15.487-10.291a1 1 0 0 1-.89-1.454l3.099-6.08h-2.208a1 1 0 1 1 0-2h3.84a1 1 0 0 1 .89 1.454l-3.84 7.534a1 1 0 0 1-.891.546zm0 10.291a1 1 0 0 1-.89-1.454l3.099-6.082h-2.208a1 1 0 1 1 0-2h3.84a1 1 0 0 1 .89 1.454l-3.84 7.537a.998.998 0 0 1-.891.545z"/><circle class="st1" cx="12.413" cy="9.373" r="4.006"/><circle class="st1" cx="12.413" cy="19.986" r="4.006"/></svg>