<?xml version="1.0" encoding="utf-8"?>
<!-- Generator: Adobe Illustrator 19.0.0, SVG Export Plug-In . SVG Version: 6.00 Build 0)  -->
<svg version="1.1" id="icon" xmlns="http://www.w3.org/2000/svg" xmlns:xlink="http://www.w3.org/1999/xlink" x="0px" y="0px"
	 width="59.6800957px" height="59.6777px" viewBox="0 0 59.6800957 59.6777" style="enable-background:new 0 0 59.6800957 59.6777;"
	 xml:space="preserve">
<style type="text/css">
	.st0{fill:#3E66C8;}
</style>
<path class="st0" d="M29.8407955,0C13.3529997,0,0,13.3555002,0,29.8397999C0,46.3261986,13.3529997,59.6777,29.8407955,59.6777
	c16.4824009,0,29.8393002-13.3515015,29.8393002-29.8379002C59.6800957,13.3555002,46.3231964,0,29.8407955,0z
	 M45.8426933,30.5879002L31.6976948,46.5723c-0.2308998,0.2616997-0.6625996,0.097599-0.6625996-0.25v-7.6954002
	c0-1.1035004-0.8955002-2-2-2H17.5018959c-0.5522003,0-1-0.4472008-1-1V24.0508003c0-0.5528011,0.4477997-1,1-1h11.5331993
	c1.1044998,0,2-0.8964996,2-2v-7.6817007c0-0.3476,0.4316998-0.5116997,0.6630993-0.25l14.1440983,15.9707003
	C46.2206955,29.5175991,46.2206955,30.1620998,45.8426933,30.5879002z"/>
</svg>
