<?xml version="1.0" encoding="utf-8"?>
<!-- Generator: Adobe Illustrator 19.0.0, SVG Export Plug-In . SVG Version: 6.00 Build 0)  -->
<svg version="1.1" id="Режим_изоляции"
	 xmlns="http://www.w3.org/2000/svg" xmlns:xlink="http://www.w3.org/1999/xlink" x="0px" y="0px" width="59.400425px"
	 height="56.9945984px" viewBox="0 0 59.400425 56.9945984" style="enable-background:new 0 0 59.400425 56.9945984;"
	 xml:space="preserve">
<style type="text/css">
	.st0{fill:#FFFFFF;}
</style>
<g>
	<path class="st0" d="M1.7002245,44.4003983C0.7627,44.4003983,0,43.6376991,0,42.7001991v-41C0,0.7627,0.7627,0,1.7002245,0h56
		c0.9375,0,1.7001991,0.7627,1.7001991,1.7002v41c0,0.9375-0.7626991,1.7001991-1.7001991,1.7001991H1.7002245z
		 M5.7002244,4.4004002c-0.7168245,0-1.2998247,0.5829997-1.2998247,1.2997999v33C4.4003997,39.4169998,4.9833999,40,5.7002244,40
		h48c0.7167969,0,1.2997971-0.5830002,1.2997971-1.2998009v-33c0-0.7168002-0.5830002-1.2997999-1.2997971-1.2997999H5.7002244z"/>
	<circle class="st0" cx="30.7778625" cy="52.6171989" r="4.3774624"/>
	<circle class="st0" cx="42.9003754" cy="52.6171989" r="4.3769498"/>
	<circle class="st0" cx="55.0224762" cy="52.6171989" r="4.3779502"/>
	<path class="st0" d="M41.3398247,17.6410999l-6.4422989-0.9360008c-0.6172028-0.0898991-1.1553001-0.4804993-1.4317017-1.0409994
		l-2.8808002-5.8374996c-0.362299-0.7337999-1.4082241-0.7337999-1.770525,0l-2.8808994,5.8374996
		c-0.2763748,0.5605001-0.8134995,0.9511003-1.4326,1.0409994l-6.4414005,0.9360008
		c-0.8095989,0.1177006-1.1327991,1.1128006-0.5468998,1.6835995l4.6611004,4.5435009
		c0.4473,0.4359989,0.6534252,1.0683002,0.5478992,1.6835003L21.6201,31.9673004
		c-0.137701,0.8060989,0.7089996,1.4213982,1.4335995,1.0405006l5.7607994-3.028801
		c0.5527248-0.2905006,1.2177258-0.2905006,1.770525,0l5.7617016,3.028801
		c0.7245979,0.3808975,1.5702972-0.2344017,1.4315987-1.0405006l-1.0995979-6.4155998
		c-0.1055031-0.6152,0.0995979-1.2475014,0.5468979-1.6835003l4.6611023-4.5435009
		C42.4727249,18.7539005,42.1494255,17.7588005,41.3398247,17.6410999z"/>
</g>
</svg>
