<?xml version="1.0" encoding="utf-8"?>
<!-- Generator: Adobe Illustrator 19.0.0, SVG Export Plug-In . SVG Version: 6.00 Build 0)  -->
<svg version="1.1" id="icon" xmlns="http://www.w3.org/2000/svg" xmlns:xlink="http://www.w3.org/1999/xlink" x="0px" y="0px"
	 width="25.6991997px" height="36.347599px" viewBox="0 0 25.6991997 36.347599"
	 style="enable-background:new 0 0 25.6991997 36.347599;" xml:space="preserve">
<style type="text/css">
	.st0{fill:#F9F9F9;}
</style>
<g>
	<g>
		<path class="st0" d="M24.6991997,36.347599H1c-0.5527,0-1-0.4472008-1-1V2.4061999C0,1.8535,0.4473,1.4062001,1,1.4062001h7.125
			v1.9999999H2V34.347599h21.6991997V3.4061999h-6.125V1.4062001h7.125c0.5528011,0,1,0.4473,1,0.9999999V35.347599
			C25.6991997,35.9003983,25.2520008,36.347599,24.6991997,36.347599z"/>
	</g>
	<g>
		<path class="st0" d="M17.5741997,4.8105001H8.125c-0.2764001,0-0.5-0.2235999-0.5-0.5V0.5c0-0.2764,0.2235999-0.5,0.5-0.5
			h9.4491997c0.2763996,0,0.5,0.2236,0.5,0.5v3.8105001C18.0741997,4.5869002,17.8505993,4.8105001,17.5741997,4.8105001z
			 M8.625,3.8104999h8.4491997V1H8.625V3.8104999z"/>
	</g>
	<g>
		<path class="st0" d="M20.0527,9.6113005H5.9569998c-0.2763,0-0.5-0.2236004-0.5-0.5c0-0.2764006,0.2237-0.5,0.5-0.5H20.0527
			c0.2763996,0,0.5,0.2235994,0.5,0.5C20.5527,9.3877001,20.3290997,9.6113005,20.0527,9.6113005z"/>
	</g>
	<g>
		<path class="st0" d="M20.0527,15.0058002h-14.0976c-0.2764001,0-0.5-0.2236004-0.5-0.5c0-0.2763004,0.2235999-0.5,0.5-0.5h14.0976
			c0.2763996,0,0.5,0.2236996,0.5,0.5C20.5527,14.7821999,20.3290997,15.0058002,20.0527,15.0058002z"/>
	</g>
	<g>
		<path class="st0" d="M20.0527,20.4022999H5.9569998c-0.2763,0-0.5-0.2236004-0.5-0.5s0.2237-0.5,0.5-0.5H20.0527
			c0.2763996,0,0.5,0.2236004,0.5,0.5S20.3290997,20.4022999,20.0527,20.4022999z"/>
	</g>
	<g>
		<path class="st0" d="M20.0527,25.7987995H5.9569998c-0.2763,0-0.5-0.2236004-0.5-0.5s0.2237-0.5,0.5-0.5H20.0527
			c0.2763996,0,0.5,0.2236004,0.5,0.5S20.3290997,25.7987995,20.0527,25.7987995z"/>
	</g>
</g>
</svg>
