<?xml version="1.0" encoding="utf-8"?>
<!-- Generator: Adobe Illustrator 19.0.0, SVG Export Plug-In . SVG Version: 6.00 Build 0)  -->
<svg version="1.1" id="Слой_1" xmlns="http://www.w3.org/2000/svg" xmlns:xlink="http://www.w3.org/1999/xlink" x="0px" y="0px"
	 width="15.0004997px" height="9.7510509px" viewBox="0 0 15.0004997 9.7510509"
	 style="enable-background:new 0 0 15.0004997 9.7510509;" xml:space="preserve">
<style type="text/css">
	.st0{fill-rule:evenodd;clip-rule:evenodd;fill:none;}
</style>
<path class="st0" d="M9.5184994,0.0004968c0.5412006,0,0.9791002,0.4363,0.9791002,0.9745v2.2337l3.6672001-3.0664999
	c0.2320995-0.2301,0.5129995-0.1139,0.5334997-0.1052c0.1836004,0.075,0.3022003,0.2525,0.3022003,0.4509v8.7755003
	c0,0.1984997-0.1185999,0.3755999-0.3022003,0.4518995c-0.0193996,0.0077-0.3023996,0.1232004-0.5334997-0.1069002
	l-3.6672001-3.0667996l-0.0018997,2.2338004c0,0.5390997-0.4379005,0.9755993-0.9791002,0.9755993H0.9791
	C0.4379,9.7509966,0,9.314497,0,8.7753973l0.002-7.8004007c0-0.5382,0.4378-0.9745,0.979-0.9745H9.5184994z"/>
</svg>
