<?xml version="1.0" encoding="utf-8"?>
<!-- Generator: Adobe Illustrator 19.0.0, SVG Export Plug-In . SVG Version: 6.00 Build 0)  -->
<svg version="1.1" id="icon" xmlns="http://www.w3.org/2000/svg" xmlns:xlink="http://www.w3.org/1999/xlink" x="0px" y="0px"
	 width="59.702198px" height="58.7331123px" viewBox="0 0 59.702198 58.7331123"
	 style="enable-background:new 0 0 59.702198 58.7331123;" xml:space="preserve">
<style type="text/css">
	.st0{fill:#FFFFFF;}
</style>
<g>
	<path class="st0" d="M32.8671989,3.2917118c-1.6577015-0.0526998-2.977499,1.3271999-2.977499,2.9854002v22.3652
		c0,0.9580002-0.3833008,1.8828011-1.0606003,2.5605011L13.0142002,47.0163116
		c-1.1675005,1.1669998-1.2276001,3.0674019-0.0254002,4.1982994c5.1592007,4.8554001,11.8677006,7.5185013,18.9857998,7.5185013
		c15.2890987,0,27.7275982-12.4384995,27.7275982-27.7275009C59.702198,16.0144119,47.7446976,3.7644119,32.8671989,3.2917118z
		 M31.9745998,54.5651131c-5.0405006,0-9.8885994-1.5956993-13.9027996-4.5371017
		c-0.6592007-0.482399-0.7354012-1.4375-0.1576996-2.0155983l14.0238972-14.0233994
		c1.3555012-1.3555031,2.121603-3.2041016,2.121603-5.1211014V9.0368118c0-0.7832003,0.633297-1.4491997,1.4076958-1.3348999
		C46.900898,9.3855124,55.5326958,19.182312,55.5326958,31.0056114
		C55.5326958,43.9958115,44.9648972,54.5651131,31.9745998,54.5651131z"/>
	<path class="st0" d="M24.5039005,23.364912c0.7792988,0.7852001,2.1201,0.2364006,2.125-0.8701l0.0816002-19.6424999
		c0.0072994-1.6611999-1.3721008-3.0225-3.0230007-2.835c-4.7982998,0.5449-9.1971998,2.4150002-12.8188,5.2372999
		c-1.3184004,1.0264001-1.3736,2.9745998-0.1968002,4.1611004L24.5039005,23.364912z"/>
	<path class="st0" d="M23.5230007,27.4646111L9.6328001,13.5739117c-1.1821003-1.1806002-3.1303-1.1328001-4.1631002,0.1807003
		C2.0434999,18.114912,0,23.6110115,0,29.5866127c0,5.9736977,2.0434999,11.4716988,5.4696999,15.8311005
		c1.0328002,1.3125,2.9814997,1.3612976,4.1631002,0.1796989l13.8902006-13.8896999
		C24.6947994,30.5349121,24.6947994,28.6364117,23.5230007,27.4646111z"/>
</g>
</svg>
