<?xml version="1.0" encoding="utf-8"?>
<!-- Generator: Adobe Illustrator 19.0.0, SVG Export Plug-In . SVG Version: 6.00 Build 0)  -->
<svg version="1.1" id="icon" xmlns="http://www.w3.org/2000/svg" xmlns:xlink="http://www.w3.org/1999/xlink" x="0px" y="0px"
	 width="60px" height="50.1161194px" viewBox="0 0 60 50.1161194" style="enable-background:new 0 0 60 50.1161194;"
	 xml:space="preserve">
<style type="text/css">
	.st0{fill:#FFFFFF;}
</style>
<path class="st0" d="M58,5.1161189L7.7519999,0.0492191c-1.086-0.2412-2.1675,0.4268-2.4370999,1.5068001l-0.0721998,12.5899
	C5.1001,14.7147188,4.5864,15.1161194,4,15.1161194H2c-1.1045001,0-2,0.8955002-2,2v31c0,1.1044998,0.8955,2,2,2h29.0209999
	h14.9418983H58c1.104496,0,2-0.8955002,2-2v-41C60,6.0116191,59.104496,5.1161189,58,5.1161189z M55,44.1161194
	c0,0.5527-0.4478035,1-1,1h-3.2686043H34.1679993H6c-0.5521998,0-1-0.4473-1-1v-23c0-0.5517998,0.4478002-1,1-1h19
	c1.2777996,0,2.5107002-0.5107002,3.4141006-1.4141006l7.8788986-7.8788996
	C36.7445984,10.3720188,37.3612976,10.1161194,38,10.1161194h16c0.5521965,0,1,0.4481993,1,1V44.1161194z"/>
</svg>
