<?xml version="1.0" encoding="utf-8"?>
<!-- Generator: Adobe Illustrator 19.0.0, SVG Export Plug-In . SVG Version: 6.00 Build 0)  -->
<svg version="1.1" id="Calque_1" xmlns="http://www.w3.org/2000/svg" xmlns:xlink="http://www.w3.org/1999/xlink" x="0px" y="0px"
	 width="36px" height="26.6396828px" viewBox="0 0 36 26.6396828" style="enable-background:new 0 0 36 26.6396828;"
	 xml:space="preserve">
<style type="text/css">
	.st0{fill-rule:evenodd;clip-rule:evenodd;}
</style>
<path class="st0" d="M34.560482,26.6396828H1.4394845C0.6444845,26.6396828,0,25.9951,0,25.1991997V1.4395
	C0,0.6445,0.6444845,0,1.4394845,0H34.560482C35.355484,0,36,0.6445,36,1.4395v23.7596989
	C36,25.9951,35.355484,26.6396828,34.560482,26.6396828z M33.4071846,2.8418c0-0.3301179-0.2656021-0.5986001-0.5946999-0.5986001
	H3.043c-0.3282156,0-0.5948155,0.2684822-0.5948155,0.5986001c0,0,0,6.2363005,0,11.8828001
	c0,0.7431993,6.1914001-8.2451,6.1914001-8.2451s5.0352001,8.3544998,9.072299,12.7294998
	c0.2569008,0.0508003,0.5557003,0.097683,0.8828011,0.1425991c1.1611996-1.5781994,3.7441998-5.0976992,5.1651001-7.112299
	C25.125,13.8105993,27.5,17.7285004,29.5692844,19.9814987c2.2245998,0.0537014,3.8379002,0.0683002,3.8379002,0.0683002V2.8418z
	 M27.7196846,10.0801001c-1.3916016,0-2.5195007-1.1289005-2.5195007-2.5205002s1.1278992-2.5194998,2.5195007-2.5194998
	c1.3915997,0,2.5204983,1.1278996,2.5204983,2.5194998S29.1112843,10.0801001,27.7196846,10.0801001z"/>
</svg>
