<?xml version="1.0" encoding="utf-8"?>
<!-- Generator: Adobe Illustrator 19.0.0, SVG Export Plug-In . SVG Version: 6.00 Build 0)  -->
<svg version="1.1" id="Слой_1" xmlns="http://www.w3.org/2000/svg" xmlns:xlink="http://www.w3.org/1999/xlink" x="0px" y="0px"
	 width="13.5018997px" height="11.2496004px" viewBox="0 0 13.5018997 11.2496004"
	 style="enable-background:new 0 0 13.5018997 11.2496004;" xml:space="preserve">
<style type="text/css">
	.st0{fill-rule:evenodd;clip-rule:evenodd;fill:none;}
</style>
<path class="st0" d="M12.6581001,2.3861001h-1.9877005l-0.7598-1.7623C9.6758003,0.234,9.2819004,0,8.8607998,0H4.6416001
	C4.2205,0,3.8274,0.2336,3.5917001,0.6234L2.832,2.3861001H0.8443C0.3779,2.3861001,0,2.8079,0,3.3276c0,0,0,6.9206996,0,6.9803996
	c0,0.5201006,0.3776,0.9416008,0.8438,0.9416008h11.8138008c0.4664993,0,0.8438997-0.4215002,0.8438997-0.9416008L13.5018997,3.3276
	C13.5018997,2.8079,13.1244001,2.3861001,12.6581001,2.3861001z M6.7508001,8.8705997
	c-1.3976002,0-2.5093002-1.1896996-2.5093002-2.7499995C4.2414999,4.5606999,5.3532,3.1952,6.7508001,3.1952
	s2.5092001,1.3655,2.5092001,2.9254003C9.2600002,7.6809001,8.1484003,8.8705997,6.7508001,8.8705997z"/>
</svg>
