<?xml version="1.0" encoding="utf-8"?>
<!-- Generator: Adobe Illustrator 19.0.0, SVG Export Plug-In . SVG Version: 6.00 Build 0)  -->
<svg version="1.1" id="Слой_1" xmlns="http://www.w3.org/2000/svg" xmlns:xlink="http://www.w3.org/1999/xlink" x="0px" y="0px"
	 width="365.6796875px" height="391.1991882px" viewBox="0 0 365.6796875 391.1991882"
	 style="enable-background:new 0 0 365.6796875 391.1991882;" xml:space="preserve">
<style type="text/css">
	.st0{fill:#2C2F33;}
</style>
<g>
	<path class="st0" d="M205.2812958,144.9614105c7.4375-6.4814148,11.7577972-15.8403015,11.7577972-25.8403015V60.6411095
		C217.039093,27.1992111,189.8397827,0,156.3978882,0H143.839798c-33.4419098,0-60.6411057,27.1992111-60.6411057,60.6411095
		v58.4799995c0,10,4.3213043,19.3588867,11.7621994,25.8403015v49.1987915
		c-12.1601028,6.1601105-48.2416992,25.3592987-81.7616959,52.8789063C4.8007941,253.9219055,0,264.1602173,0,275.039093v40.0820007
		c0,4.398407,3.52,7.9179993,7.9218936,7.9179993c4.3979001,0,7.9178996-3.5195923,7.9178996-7.9179993V275.039093
		c0-6.1601868,2.7193003-11.9179993,7.4410009-15.7578735C58.878891,230,97.6020889,210.4805145,104.9608917,206.8789063
		c3.5981979-1.7577972,5.9179993-5.4375,5.9179993-9.4375v-56.402298c0-2.6412048-1.3588943-5.1166992-3.5199966-6.5591125
		c-5.1987-3.4408875-8.2378006-9.1987839-8.2378006-15.3588867V60.6411095
		c0-24.7186966,20.0775986-44.8007965,44.8007965-44.8007965h12.4759979c24.7232056,0,44.8013,20.0820999,44.8013,44.8007965
		v58.4799995c0,6.1601028-3.1210938,11.9179993-8.2382965,15.3588867c-2.2420959,1.4424133-3.5195007,3.9179077-3.5195007,6.5591125
		v56.402298c0,4.398407,3.5195007,7.9179993,7.9179993,7.9179993c4.402298,0,7.9219055-3.5195923,7.9219055-7.9179993V144.9614105z
		 M205.2812958,144.9614105"/>
	<path class="st0" d="M169.5200043,205.6797028c-4.3989105,0-7.9179077,3.5195007-7.9179077,7.9219055
		c0,3.277298-1.4419098,6.3202972-3.6802063,8.3983917c-0.4810028,0.3203125-0.9609985,0.7187042-1.362793,1.121109
		c-1.8399048,1.1992035-4,1.9179993-6.3989105,1.9179993c-6.3203888,0-11.4409943-5.1172028-11.4409943-11.4375
		c0-4.4024048-3.5205078-7.9219055-7.918396-7.9219055c-4.4029083,0-7.9219055,3.5195007-7.9219055,7.9219055
		c0,6.4765015,2.2422028,12.3983917,6,17.0390015l-5.839798,135.4374847
		c-0.0782013,2.3203125,0.8827972,4.6405945,2.641098,6.242218l18.5576019,16.8007813
		c1.5243988,1.3594055,3.4423981,2.0780945,5.2822113,2.0780945c1.9208832,0,3.8388824-0.718689,5.2807922-2.0780945
		l18.8793945-17.0429993c1.7606964-1.5975952,2.7176971-3.8397827,2.6396027-6.2382813L170.237793,232
		c4.4813995-4.878891,7.2030945-11.2812958,7.2030945-18.3983917
		C177.4408875,209.2812042,173.8397827,205.6797028,169.5200043,205.6797028L169.5200043,205.6797028z M149.5200043,372.6405945
		l-10.4809113-9.4414063l5.2807007-122.8007813c1.8403931,0.4024048,3.8403931,0.6407013,5.8403931,0.6407013
		c1.602005,0,3.1206055-0.160202,4.6406097-0.3984985l5.5189972,122.3202972L149.5200043,372.6405945z M149.5200043,372.6405945"/>
	<path class="st0" d="M342.0780945,215.8398132c-15.1992188-15.1992035-35.359314-23.5195007-56.8789063-23.5195007
		c-21.5195007,0-41.6797028,8.3983917-56.8789063,23.5195007c-28.718689,28.7187958-31.3593903,74.3204041-6.8007965,106
		c-2.8006897,5.1992798-6,8.640686-9.441391,10.3984985c-4.2383118,2.0820007-6.558609,6.5625-5.8398132,11.281189
		c0.7226105,4.6407166,4.3203125,8.242218,8.960907,9.039093c1.9219055,0.3203125,3.9219055,0.4804993,6,0.4804993
		c9.4414063,0,19.3594055-3.039093,27.8399048-8.3984985c11.1991882,5.5977173,23.6015015,8.5586243,36.2421875,8.5586243
		c21.5195007,0,41.6795959-8.398407,56.8789063-23.5195007c15.1991882-15.1992188,23.5195007-35.3594055,23.5195007-56.8789063
		C365.601593,251.2812042,357.2812805,231.0391083,342.0780945,215.8398132L342.0780945,215.8398132z M330.8788757,318.398407
		c-12.1600952,12.1601868-28.3983765,18.882782-45.6796875,18.882782c-11.5195007,0-22.8008118-3.0428772-32.7187042-8.882782
		c-1.2812958-0.718689-2.6407013-1.117218-4-1.117218c-1.7617035,0-3.441391,0.5586243-4.878891,1.679718
		c-4.0821075,3.1993103-8.2422028,5.1171875-11.8399048,6.320282c2.3164063-3.2030945,4.476593-7.0428772,6.3164063-11.3592834
		c1.203186-2.8008118,0.7226868-6.0820923-1.359314-8.4024048C214.1601868,290,215.3593903,251.1992035,239.441391,227.0391083
		c12.160202-12.160202,28.3983917-18.8789063,45.6797028-18.8789063c17.2772827,0,33.4375,6.7187042,45.6796875,18.8789063
		c12.2383118,12.1600952,18.8789063,28.402298,18.8789063,45.6796112
		C349.7616882,290,343.039093,306.2383118,330.8788757,318.398407L330.8788757,318.398407z M330.8788757,318.398407"/>
	<path class="st0" d="M294,272.7187195c0,4.8632813-3.9414063,8.8007813-8.8008118,8.8007813s-8.8008118-3.9375-8.8008118-8.8007813
		c0-4.859314,3.9414063-8.796814,8.8008118-8.796814S294,267.8594055,294,272.7187195L294,272.7187195z M294,272.7187195"/>
	<path class="st0" d="M324.7187805,272.7187195c0,4.8632813-3.9375,8.8007813-8.7969055,8.8007813
		c-4.8632813,0-8.8007813-3.9375-8.8007813-8.8007813c0-4.859314,3.9375-8.796814,8.8007813-8.796814
		C320.7812805,263.9219055,324.7187805,267.8594055,324.7187805,272.7187195L324.7187805,272.7187195z M324.7187805,272.7187195"/>
	<path class="st0" d="M263.1991882,272.7187195c0,4.8632813-3.9375,8.8007813-8.8007965,8.8007813
		c-4.8592987,0-8.7967987-3.9375-8.7967987-8.8007813c0-4.859314,3.9375-8.796814,8.7967987-8.796814
		C259.2616882,263.9219055,263.1991882,267.8594055,263.1991882,272.7187195L263.1991882,272.7187195z M263.1991882,272.7187195"/>
</g>
</svg>
