<?xml version="1.0" encoding="utf-8"?>
<!-- Generator: Adobe Illustrator 19.0.0, SVG Export Plug-In . SVG Version: 6.00 Build 0)  -->
<svg version="1.1" id="Слой_1" xmlns="http://www.w3.org/2000/svg" xmlns:xlink="http://www.w3.org/1999/xlink" x="0px" y="0px"
	 width="392px" height="348px" viewBox="0 0 392 348" style="enable-background:new 0 0 392 348;" xml:space="preserve">
<style type="text/css">
	.st0{fill:#2C2F33;}
</style>
<path class="st0" d="M136.3978882,218.960907c-7.5970917,6.2382965-12,15.597702-12,25.5195923v35.4414063
	c0,4.398407,3.5240021,7.9179077,7.9219055,7.9179077c4.3993988,0,7.9179993-3.5195007,7.9179993-7.9179077v-35.4414063
	c0-5.199295,2.2422028-10,6.2422028-13.2812958c31.4418945-25.839798,65.5980988-43.0390015,72.078598-46.2382965
	c3.5195007-1.6797028,5.7616882-5.2812042,5.7616882-9.1992035v-49.9218979c0-2.641098-1.3593903-5.1205978-3.5195007-6.5589981
	c-4.3202972-2.8828964-6.878891-7.6786957-6.878891-12.8008041V54.7192116C213.9218903,33.3589096,231.2812958,16,252.6405945,16
	h11.1210938c21.3594055,0,38.718811,17.3589096,38.718811,38.7192116v51.7607918
	c0,5.1221085-2.5586243,9.9179077-6.8789063,12.8008041c-2.242218,1.4384003-3.5234985,3.9179001-3.5234985,6.5589981v49.8398972
	c0,3.9219055,2.2421875,7.5195007,5.7616882,9.1992035c6.5585938,3.1992035,40.6407166,20.402298,72.0820923,46.2422028
	c3.9179077,3.277298,6.2383118,8.0780945,6.2383118,13.277298v35.4414063c0,4.3984985,3.5195007,7.9219055,7.9179077,7.9219055
	c4.4024048,0,7.9219055-3.523407,7.9219055-7.9219055V244.398407c0-9.9179077-4.398407-19.1992035-12-25.5195007
	c-29.2812195-24.0780945-60.8008118-40.9570007-72.078125-46.7187042v-42.5580902
	c6.5586243-5.9219055,10.398407-14.3213043,10.398407-23.2823029V54.5591087C318.320282,24.4799995,293.8397827,0,263.7616882,0
	h-11.1210938c-30.0820007,0-54.5625,24.4799995-54.5625,54.5591087v51.7607002
	c0,8.9609985,3.8437958,17.3603973,10.4023895,23.2823029v42.5580902
	C197.1991882,177.9219055,165.7621918,194.8789063,136.3978882,218.960907L136.3978882,218.960907z M136.3978882,218.960907"/>
<path class="st0" d="M114.9608917,50.5591087h-9.0390015C80.6410904,50.5591087,60,71.121109,60,96.4800034v42.1611099
	c0,7.5190887,3.1210938,14.5576019,8.4800034,19.5966949v33.1215973C58.6410942,196.398407,33.6020927,210,10.3197937,229.121109
	C3.7621942,234.4804993,0,242.4804993,0,251.0391083v28.8827972c0,4.398407,3.52,7.9179077,7.9218941,7.9179077
	c4.3978996,0,7.9179001-3.5195007,7.9179001-7.9179077v-28.8827972c0-3.7579041,1.6802063-7.2774048,4.5580997-9.6797028
	c25.5240002-20.9609985,53.1221008-34.8789063,58.4809952-37.5195923c3.358902-1.6015015,5.5190048-5.121109,5.5190048-8.800705
	v-40.6412048c0-2.6356964-1.3588028-5.1170959-3.5190048-6.5580902c-3.1166992-2.0776062-4.9570007-5.5200043-4.9570007-9.1987
	V96.4800034c0-16.5580902,13.5190048-30.0820923,30.0781097-30.0820923h9.039093
	c16.5630035,0,30.0820007,13.5240021,30.0820007,30.0820923v42.1611099c0,3.6786957-1.8403015,7.1210938-4.960907,9.1987
	c-2.2382965,1.4409943-3.5190887,3.9223938-3.5190887,6.5580902v33.3638c0,4.3984985,3.5190887,7.9179993,7.9179993,7.9179993
	c4.4017944,0,7.9208984-3.5195007,7.9208984-7.9179993v-29.5238953c5.3598022-5.039093,8.480896-12.0776062,8.480896-19.5966949
	V96.4800034C160.878891,71.121109,140.3197937,50.5591087,114.9608917,50.5591087L114.9608917,50.5591087z M114.9608917,50.5591087"
	/>
<path class="st0" d="M275.359375,182.0781097c-4.3984985,0-7.9179993,3.5234985-7.9179993,7.9218903
	c0,5.121109-4.1600952,9.1992035-9.2030945,9.1992035c-1.9179993,0-3.6796875-0.5585938-5.1171875-1.5975952
	c-0.3203125-0.3204041-0.722702-0.6407013-1.1210938-0.8829041c-1.8398132-1.6795959-2.960907-4.0780945-2.960907-6.7967987
	c0-4.4024048-3.5196075-7.9219055-7.9179993-7.9219055c-4.402298,0-7.9219055,3.5195007-7.9219055,7.9219055
	c0,6.398407,2.4024048,12.1562042,6.3202972,16.6367035l-5.3592987,118.0819855
	c-0.0820923,2.3984985,0.8789063,4.6405945,2.6405945,6.2383118l16.7187042,15.0429993
	C255.039093,347.281189,256.9608765,348,258.8007813,348c1.9179993,0,3.7578125-0.6405945,5.2773132-2l16.4804993-14.8007813
	c1.7616882-1.5976257,2.7226868-3.8398132,2.6405945-6.2383118l-5.1210938-119.5195007
	c3.3632813-4.2422028,5.3632813-9.601593,5.3632813-15.3632965
	C283.2812805,185.6797028,279.6796875,182.0781097,275.359375,182.0781097L275.359375,182.0781097z M258.7187805,329.5195007
	l-8.640686-7.757782l4.8007965-106.8008118c1.0429993,0.160202,2.160202,0.2382965,3.1992035,0.2382965
	c1.4414063,0,2.882782-0.1600952,4.320282-0.3983917L267.039093,322L258.7187805,329.5195007z M258.7187805,329.5195007"/>
</svg>
