<?xml version="1.0" encoding="utf-8"?>
<!-- Generator: Adobe Illustrator 19.0.0, SVG Export Plug-In . SVG Version: 6.00 Build 0)  -->
<svg version="1.1" id="Слой_1" xmlns="http://www.w3.org/2000/svg" xmlns:xlink="http://www.w3.org/1999/xlink" x="0px" y="0px"
	 width="8.9915295px" height="9.7503319px" viewBox="0 0 8.9915295 9.7503319"
	 style="enable-background:new 0 0 8.9915295 9.7503319;" xml:space="preserve">
<style type="text/css">
	.st0{fill:none;}
</style>
<g>
	<path id="XMLID_24_" class="st0" d="M4.4931774,5.5629272c1.343811,0,2.4331055-1.2452393,2.4331055-2.7814331
		C6.9262829,1.2455444,5.8369884,0,4.4931774,0C3.1493056,0,2.0598891,1.2455444,2.0598891,2.7814941
		C2.0598891,4.317688,3.1493056,5.5629272,4.4931774,5.5629272z M8.6551037,8.3544312c0,0-0.4484863-1.3522949-1.0986938-2.0722046
		c-0.6503296-0.7196045-1.4125977,0-1.4125977,0s-0.3363037,0.6762085-1.4573975,0.697876H4.3051891
		c-1.1212156-0.0216675-1.4575193-0.697876-1.4575193-0.697876s-0.7622681-0.7196045-1.4125977,0
		C0.7849256,7.0021362,0.3363783,8.3544312,0.3363783,8.3544312L0.0000136,9.0524902
		c0,0.6762085,0.6951904,0.6978149,0.6951904,0.6978149H8.296278c0,0,0.6952515-0.0216064,0.6952515-0.6978149L8.6551037,8.3544312z
		"/>
</g>
</svg>
