<?xml version="1.0" encoding="utf-8"?>
<!-- Generator: Adobe Illustrator 19.0.0, SVG Export Plug-In . SVG Version: 6.00 Build 0)  -->
<svg version="1.1" id="Слой_1" xmlns="http://www.w3.org/2000/svg" xmlns:xlink="http://www.w3.org/1999/xlink" x="0px" y="0px"
	 width="328.2158813px" height="393.921875px" viewBox="0 0 328.2158813 393.921875"
	 style="enable-background:new 0 0 328.2158813 393.921875;" xml:space="preserve">
<style type="text/css">
	.st0{fill:#2C2F33;}
</style>
<path class="st0" d="M275.7764282,100.5590897l-14.5625,20l-14.5585022-20c-2.160202-2.9570007-6-4.0790939-9.3593903-2.7191925
	c-0.5625,0.2378006-12.9609985,5.281189-24.6406097,13.1211014c-11.761795-7.8399124-24.0820923-12.8833008-24.6407013-13.1211014
	c-3.3592987-1.3599014-7.1991882-0.2378082-9.3592987,2.7191925l-14.562088,20l-14.5590057-20
	c-2.1601868-2.9570007-6-4.0790939-9.3594055-2.7191925c-0.5585938,0.2378006-12.9609909,5.281189-24.6405945,13.1211014
	c-11.7583008-7.8399124-24.1601868-12.8833008-24.6401901-13.1211014c-3.3598099-1.3599014-7.2002106-0.2378082-9.3598099,2.7191925
	l-14.5580978,20l-14.5629997-20c-2.1601982-2.9570007-6-4.0790939-9.3588982-2.7191925
	c-0.6411018,0.2378006-15.8404007,6.3979034-28.4815006,15.7621918c-3.5965996,2.6357117-5.2767992,4.319809-8.2377996,7.2768097
	c-11.0389996,11.0429916-4.8788934,56.5620041-2.0819998,67.0429916C8.0933361,202,18.3350353,220.878891,19.9371433,223.7616882
	c1.838892,4.3164063,3.039093,8.8789063,3.5189991,13.5196075l14.3979988,141.59758
	c0.8788948,8.5625,8,15.0429993,16.6410942,15.0429993h24.9609108c8.6371918,0,15.7577896-6.4804993,16.6371841-15.0429993
	l14.4019012-141.59758c0.4810028-4.6407013,1.6797028-9.2032013,3.5200043-13.5196075
	c0.2378006-0.4803925,0.7997971-1.441391,1.5190964-2.8006897c0.7187042,1.3592987,1.2807007,2.3202972,1.5200043,2.8006897
	c1.8398056,4.3164063,3.0389938,8.8789063,3.5184937,13.5196075l14.4033966,141.59758
	c0.8779144,8.5625,8,15.0429993,16.6401062,15.0429993h24.9570007c8.6405945,0,15.7617035-6.4804993,16.6405945-15.0429993
	l14.4024048-141.59758c0.476593-4.6407013,1.6797028-9.2032013,3.5195007-13.5196075
	c0.2383118-0.4803925,0.8007965-1.5233917,1.5195923-2.8006897c0.7187195,1.3592987,1.2812042,2.3202972,1.5195007,2.8006897
	c1.839798,4.3164063,3.0390015,8.8789063,3.5195007,13.5196075l14.3984985,141.59758
	c0.8827972,8.5625,8,15.0429993,16.6406097,15.0429993h24.9608917c8.6405945,0,15.7617188-6.4804993,16.6405945-15.0429993
	l14.3984985-141.59758c0.4804077-4.6407013,1.679718-9.2032013,3.5195007-13.5196075
	C309.8546143,220.878891,320.092926,202,323.936615,187.9218903c2.8789063-10.4809875,8.9570007-56.0820007-2.0820007-67.0429916
	c-2.9609985-2.9570007-4.640686-4.641098-8.2382813-7.2768097c-12.7227173-9.3642883-27.8399048-15.5243912-28.4804993-15.7621918
	C281.7764282,96.5590897,277.936615,97.6020889,275.7764282,100.5590897L275.7764282,100.5590897z M99.8541412,216.4804993
	c-0.0781097,0.2382965-0.2378082,0.3983917-0.319809,0.6405945c-2.6401901,5.9179993-4.2382965,12.160202-4.8793945,18.6405945
	L80.2530365,377.3594055c-0.0781021,0.4804993-0.3988953,0.8007813-0.878891,0.8007813H54.4132347
	c-0.4760933,0-0.8788986-0.320282-0.8788986-0.8007813L39.1363373,235.7616882
	c-0.6411018-6.402298-2.3213005-12.7225952-4.8833008-18.6405945c-0.0781021-0.2422028-0.2378006-0.4804993-0.3158951-0.6405945
	c-0.0830002-0.160202-10.8828049-19.5195007-14.4028053-32.6406097
	c-3.9180002-14.4809875-5.0390997-46.2378082-1.8404007-51.9179993c2.5591011-2.5629883,3.6802082-3.6020966,6.2432079-5.5238953
	c6.6356926-4.8779984,14.3978939-8.8779984,19.4369984-11.3589096l17.1986923,23.6797104
	C62.0933342,140.8007965,64.4132385,142,66.9762344,142c2.5580978,0,4.8779068-1.1992035,6.3979111-3.2812042l17.1986923-23.6797104
	c3.2813034,1.602005,7.7621994,3.8398132,12.2421951,6.5630035C92.6549377,133.680191,98.5728378,177.6797028,101.3741455,188
	c1.2807922,4.7187958,3.2807846,10,5.4408875,15.039093C103.2139359,210.4804993,99.9371414,216.3984985,99.8541412,216.4804993
	L99.8541412,216.4804993z M211.5343323,183.8398895c-3.5196075,13.0390015-14.3204041,32.398407-14.3984985,32.6406097
	c-0.0820007,0.2382965-0.2422028,0.3983917-0.3202972,0.6405945c-2.6406097,5.9179993-4.2422028,12.160202-4.8789063,18.6405945
	l-14.402298,141.5977173c-0.078186,0.4804993-0.3984985,0.8007813-0.8789063,0.8007813h-24.9614868
	c-0.480011,0-0.8789063-0.320282-0.8789063-0.8007813l-14.4017944-141.5977173
	c-0.637207-6.402298-2.3199005-12.7225952-4.8789063-18.6405945c-0.078186-0.2422028-0.2382965-0.4804993-0.3204041-0.6405945
	c-0.0775909-0.160202-10.878891-19.5195007-14.3988953-32.6406097c-3.9208908-14.4809875-5.0390015-46.2378082-1.8387985-51.9179993
	c2.5580978-2.5629883,3.6786957-3.6020966,6.2377014-5.5238953c6.6402054-4.8779984,14.4023972-8.8779984,19.4410019-11.3589096
	l17.1992035,23.6797104C159.3741455,140.8007965,161.6939392,142,164.2530365,142c2.5625,0,4.8827972-1.1992035,6.4023895-3.2812042
	l17.1992035-23.6797104c5.0390015,2.4018097,12.7187042,6.4018097,19.4414063,11.3589096
	c2.5585938,1.9217987,3.6797028,2.960907,6.2382965,5.5238953
	C216.5733337,137.6020813,215.4561462,169.358902,211.5343323,183.8398895L211.5343323,183.8398895z M310.4952393,131.9218903
	c3.1991882,5.680191,2.1601868,37.4370117-1.8398132,51.9179993c-3.5195923,13.0390015-14.3204041,32.398407-14.4024048,32.6406097
	c-0.0780945,0.2382965-0.2382813,0.3983917-0.3164063,0.6405945c-2.6405945,5.9179993-4.2421875,12.160202-4.882782,18.6405945
	l-14.398407,141.5977173c-0.0820923,0.4804993-0.4024048,0.8007813-0.8789978,0.8007813h-24.9608917
	c-0.4804993,0-0.8789063-0.320282-0.8789063-0.8007813l-14.402298-141.5977173
	c-0.6407013-6.402298-2.3204041-12.7225952-4.8789063-18.6405945c-0.0820923-0.2422028-0.2422028-0.4804993-0.3203888-0.6405945
	c0-0.0820007-3.2812042-5.9219055-6.878891-13.4414063C223.616333,198,225.616333,192.7187958,226.893631,188
	c2.8007965-10.2383118,8.722702-54.2382965-1.4374847-66.3979111c4.5585785-2.7231903,8.957077-4.9609985,12.2382813-6.5630035
	l17.1992035,23.6797104C256.4132385,140.8007965,258.7335205,142,261.2960205,142
	c2.5586243,0,4.8789063-1.1992035,6.398407-3.2812042l17.1991882-23.6797104
	c5.0429993,2.4018097,12.7227173,6.4018097,19.4414063,11.3589096
	C306.8936157,128.3197937,307.936615,129.358902,310.4952393,131.9218903L310.4952393,131.9218903z M310.4952393,131.9218903"/>
<path class="st0" d="M236.092926,77.4408951c6,6.7969055,14.402298,10.4810028,24.4023132,10.7188034h1.4413757
	c10-0.2378006,18.398407-3.9218979,24.4766235-10.7188034C299.2139282,63.0390892,297.3741455,39.0390892,297.053833,36
	c-1.2774048-26.4799995-19.7578125-35.9219131-35.117218-35.9219131h-1.4413757
	c-15.3594055,0-33.8398132,9.4419117-35.1210938,35.9219131C225.1358337,38.9609985,223.2960358,63.0390892,236.092926,77.4408951
	L236.092926,77.4408951z M241.2139282,37.4408989v-0.4799004c0.8789978-18.319912,12.4804993-21.0390987,19.281311-21.0390987
	h1.4413757c6.8789063,0,18.4766235,2.7191868,19.2773132,21.0390987v0.4799004
	c0.5625,5.4379997,0.4804993,21.4379997-6.8006897,29.5200996c-3.117218,3.5189972-7.4375,5.2768021-13.117218,5.3588028h-0.2421875
	c-5.6796875-0.0820007-10-1.8398056-13.1992035-5.3588028C240.7335358,58.8008003,240.655426,42.8788986,241.2139282,37.4408989
	L241.2139282,37.4408989z M241.2139282,37.4408989"/>
<path class="st0" d="M66.093338,88.0776978h1.4409943c9.921814-0.2378006,18.319809-3.9179993,24.4028091-10.7188034
	c12.7958908-14.3978958,10.9570007-38.3978958,10.6356888-41.4369965C101.2960358,9.4408998,82.815033,0,67.4561462,0h-1.4409103
	c-15.360302,0-33.8403015,9.4408998-35.1210938,35.9218979c-0.3213062,2.9570007-2.1611061,27.0391006,10.6401939,41.4369965
	C47.6939354,84.2378006,56.1749344,87.9218979,66.093338,88.0776978L66.093338,88.0776978z M46.8150368,37.4408989v-0.4799004
	c0.8013-18.319912,12.480999-21.0390987,19.2783012-21.0390987h1.4409943c6.8788986,0,18.4809036,2.7191868,19.2807007,21.0390987
	v0.4799004c0,0.16119,1.8399048,19.7579002-6.7216949,29.4379997c-3.1171036,3.5190964-7.4384003,5.2807999-13.1991959,5.358902
	h-0.2392044c-5.6787033-0.0781021-10.0000038-1.8398056-13.1206017-5.358902
	C46.3350372,58.8008003,46.1749344,42.8788986,46.8150368,37.4408989L46.8150368,37.4408989z M46.8150368,37.4408989"/>
<path class="st0" d="M163.2139282,88.0776978h1.4410095c10.0004883-0.2378006,18.3988953-3.9179993,24.480896-10.7188034
	c12.8007965-14.3978958,10.9570923-38.3978958,10.6405945-41.4369965C198.495224,9.4408998,180.0147247,0,164.6549377,0h-1.4410095
	c-15.359787,0-33.8397827,9.4408998-35.1205902,35.9218979c-0.3173065,2.9570007-2.1561966,27.0391006,10.6396942,41.4369965
	C144.8941498,84.1596985,153.2960358,87.9218979,163.2139282,88.0776978L163.2139282,88.0776978z M144.0152283,37.4408989
	v-0.4799004c0.8789215-18.319912,12.480011-21.0390987,19.2808075-21.0390987h1.4369965
	c6.8833008,0,18.480896,2.7191868,19.2816925,21.0390987v0.4799004c0,0.16119,1.8399048,19.7579002-6.718689,29.4379997
	c-3.121109,3.5190964-7.4414063,5.2807999-13.2026978,5.358902h-0.2391968c-5.6792145-0.0781021-10-1.8398056-13.1992035-5.358902
	C143.5343323,58.8008003,143.4561462,42.8788986,144.0152283,37.4408989L144.0152283,37.4408989z M144.0152283,37.4408989"/>
</svg>
