<?xml version="1.0" encoding="utf-8"?>
<!-- Generator: Adobe Illustrator 19.0.0, SVG Export Plug-In . SVG Version: 6.00 Build 0)  -->
<svg version="1.1" id="icon" xmlns="http://www.w3.org/2000/svg" xmlns:xlink="http://www.w3.org/1999/xlink" x="0px" y="0px"
	 width="57.350235px" height="57.4715462px" viewBox="0 0 57.350235 57.4715462"
	 style="enable-background:new 0 0 57.350235 57.4715462;" xml:space="preserve">
<style type="text/css">
	.st0{fill:#3E66C8;}
</style>
<g>
	<path class="st0" d="M56.535923,43.0476265l-7.6103973-8.1016006c-0.3974037-0.4233017-0.5605011-1.0283012-0.3672028-1.5760994
		c3.1211243-8.8018017,1.1631241-19.0030022-5.8807983-26.0479012c-9.7626991-9.7627001-25.5928001-9.7627001-35.3554993,0
		c-9.7627001,9.7631989-9.7627001,25.5928001,0,35.3554993c7.0126996,7.0126991,17.1532993,8.9828987,25.9286995,5.9219017
		c0.544899-0.1905022,1.1445007-0.0127029,1.5527229,0.3944969l6.4785767,6.4790001c0.9375,0.9375,2,1.8638,3.3203011,1.9770012
		c1.8046989,0.1543007,4.8104973-0.4403992,8.6777-4.3075981C59.7927246,46.6296234,56.535923,43.0476265,56.535923,43.0476265z
		 M39.1423225,39.1423264c-7.8104992,7.809597-20.4735985,7.8100967-28.285099,0
		c-7.8105993-7.8110008-7.8095999-20.474102,0-28.2842026c7.8105001-7.8104997,20.4735985-7.8104997,28.285099,0
		C46.9529228,18.6687241,46.9519234,31.3318253,39.1423225,39.1423264z"/>
	<path class="st0" d="M34.6560249,22.5481243l-6.5254002,0.0005016c-0.5146999,0-0.9316006-0.4170017-0.9316006-0.9322014v-6.5253
		c0.0009003-1.0297995-0.8339996-1.8647995-1.8642998-1.8637991l-0.9326-0.0005007
		c-1.0293007,0.0005007-1.8633003,0.8345003-1.8633003,1.8638v6.5254011
		c0.0009995,0.5145988-0.4179993,0.9315987-0.9316006,0.9315987h-6.5253992c-1.0292997,0-1.8642998,0.8345013-1.8642998,1.8638
		l0.0010004,0.9326c-0.0010004,1.0298004,0.8339996,1.8638,1.8632994,1.8638l6.5243998,0.0009003
		c0.5146008-0.0009003,0.9335995,0.4155998,0.9326,0.9326992v6.5234013c0,1.0298004,0.8339996,1.8642006,1.8642998,1.8642006
		l0.9316006-0.0004005c1.0293007,0.0004005,1.8642998-0.8344994,1.8642998-1.8638l0.0009003-6.5249004
		c-0.0009003-0.5142002,0.4169998-0.9321003,0.9307003-0.9321003h6.5254002c1.0293007,0,1.8633003-0.8339996,1.8633003-1.8638
		l0.0009003-0.9321003C36.5202255,23.3821259,35.6853256,22.5476246,34.6560249,22.5481243z"/>
</g>
</svg>
